<svg xmlns="http://www.w3.org/2000/svg" width="148" height="128" viewBox="0 0 148 128">
    <g fill="none" fill-rule="nonzero">
        <g fill="#C41230">
            <path d="M11.77 119.209c-2.397 0-4.511-.844-6.061-2.462V128H.352v-19.692c0-5.978 4.44-10.831 10.713-10.831 6.272 0 10.642 4.923 10.642 10.901 0 5.908-4.44 10.83-9.937 10.83zm-.705-16.809c-2.96 0-5.356 2.602-5.356 5.837 0 3.306 2.396 5.978 5.356 5.978s5.356-2.602 5.356-5.978c0-3.305-2.396-5.837-5.356-5.837zM24.667 95.719v-2.954a2.674 2.674 0 0 1 2.678-2.673 2.674 2.674 0 0 1 2.678 2.673v2.954h-5.356zm5.356 23.068h-5.356V98.04h5.356v20.747zM43.766 119.28c-6.273 0-10.783-4.854-10.713-10.902 0-5.978 4.51-10.901 10.783-10.901 5.004 0 8.81 2.813 10.008 7.525h-5.709c-.705-1.406-2.396-2.602-4.299-2.602-2.96 0-5.356 2.743-5.356 6.119 0 3.235 2.396 5.978 5.356 5.978 1.974 0 3.665-1.196 4.37-2.673h5.708c-1.339 4.642-5.144 7.455-10.148 7.455zM76.255 108.448c0 6.19-4.722 10.831-10.5 10.831-5.78 0-10.502-4.642-10.431-10.901 0-6.189 4.722-10.901 10.5-10.901 5.71 0 10.431 4.782 10.431 10.971zm-5.356 0c0-3.586-2.326-6.118-5.145-6.118-2.819 0-5.144 2.461-5.144 6.118 0 3.517 2.325 5.908 5.144 5.908 2.82.07 5.145-2.391 5.145-5.908zM92.394 119.35c-7.611 0-13.602-6.4-13.602-14.63 0-8.157 5.99-14.628 13.602-14.557 6.343 0 11.065 3.586 12.756 9.353h-5.779c-1.268-2.531-3.735-4.43-6.977-4.43-4.58 0-8.245 4.43-8.245 9.705 0 5.345 3.594 9.776 8.245 9.776 3.172 0 5.709-1.97 6.977-4.501h5.709c-1.762 5.626-6.484 9.283-12.686 9.283zM119.598 95.86v23.067h-5.356V95.86H106.7v-4.993h20.368v4.993zM135.596 102.47h9.937v4.994h-9.937v11.463h-5.356V99.868c0-5.345 3.101-8.932 8.81-8.932h8.598v5.275h-8.528c-2.537 0-3.524.985-3.524 3.516v2.743z"/>
        </g>
        <path fill="#C39FCA" d="M58.002 31.719c0-2.392.352-4.572 1.128-6.47.704-1.97 1.761-3.587 3.171-4.924 1.41-1.336 3.1-2.39 5.074-3.165 1.974-.703 4.229-1.125 6.766-1.125 2.608 0 4.933.352 6.977 1.125 1.973.774 3.665 1.829 4.933 3.165l25.372 25.319c.493-2.462.775-4.993.775-7.525C112.198 17.09 95.143.07 74.07.07 52.998.07 35.943 17.09 35.943 38.12c0 21.028 17.055 38.048 38.127 38.048h.071L58.072 60.132V31.719h-.07z"/>
        <path fill="#C41230" d="M69.278 35.235c.564.563 1.269 1.055 2.044 1.336.775.352 1.62.493 2.467.493.845 0 1.691-.14 2.396-.493.775-.351 1.41-.773 1.973-1.336.564-.562 1.057-1.195 1.41-1.97a5.506 5.506 0 0 0 .493-2.32c0-.914-.141-1.758-.493-2.532-.353-.773-.776-1.477-1.34-2.11-.563-.633-1.268-1.055-2.043-1.406-.775-.352-1.621-.563-2.467-.563-.846 0-1.691.211-2.467.563-.775.351-1.41.844-2.043 1.406a7.025 7.025 0 0 0-1.41 2.04c-.352.773-.493 1.547-.493 2.391 0 .844.14 1.688.493 2.462.423.773.916 1.477 1.48 2.04zm16.773-14.91c-.07 0 0 0 0 0 1.269 1.337 2.256 2.954 2.96 4.783.635 1.828.987 3.727.987 5.837 0 2.32-.423 4.43-1.339 6.26-.916 1.828-2.044 3.305-3.453 4.57-1.34 1.196-2.89 2.181-4.51 2.744-1.622.633-3.172.914-4.652.914-1.762 0-3.383-.281-4.793-.844-1.41-.563-2.607-1.407-3.523-2.462v16.669l-9.656 1.406 16.069 16.035c18.465 0 33.829-13.151 37.352-30.523L86.051 20.325z"/>
        <path fill="#FFF" d="M89.011 25.108a12.181 12.181 0 0 0-2.96-4.712c-1.339-1.337-2.96-2.392-4.933-3.165-1.973-.774-4.299-1.126-6.977-1.126-2.537 0-4.792.352-6.766 1.126-1.973.703-3.665 1.758-5.074 3.165-1.41 1.336-2.467 3.024-3.171 4.923a18.876 18.876 0 0 0-1.128 6.47v28.484l9.655-1.407V42.198c.987 1.125 2.114 1.899 3.524 2.461 1.41.563 3.03.844 4.792.844 1.48 0 3.03-.281 4.652-.914a14.927 14.927 0 0 0 4.51-2.743c1.34-1.195 2.537-2.743 3.454-4.571.916-1.829 1.339-3.868 1.339-6.26.07-2.18-.282-4.079-.917-5.907zm-9.443 8.158c-.353.774-.776 1.407-1.41 1.97-.564.562-1.268 1.054-1.973 1.335-.775.352-1.55.493-2.396.493-.846 0-1.692-.14-2.467-.493-.775-.351-1.48-.773-2.044-1.336a7.025 7.025 0 0 1-1.41-2.04c-.352-.773-.493-1.617-.493-2.46 0-.845.141-1.689.494-2.392a6.627 6.627 0 0 1 1.41-2.04 7.04 7.04 0 0 1 2.043-1.406c.775-.352 1.55-.563 2.467-.563.845 0 1.691.211 2.466.563a7.04 7.04 0 0 1 2.044 1.406c.564.563.987 1.266 1.34 2.11.351.774.492 1.618.492 2.532-.07.774-.211 1.547-.563 2.32z"/>
    </g>
</svg>
