<?xml version="1.0" encoding="UTF-8" standalone="no"?>
<!-- Created with Inkscape (http://www.inkscape.org/) -->

<svg
   xmlns:dc="http://purl.org/dc/elements/1.1/"
   xmlns:cc="http://creativecommons.org/ns#"
   xmlns:rdf="http://www.w3.org/1999/02/22-rdf-syntax-ns#"
   xmlns:svg="http://www.w3.org/2000/svg"
   xmlns="http://www.w3.org/2000/svg"
   xmlns:sodipodi="http://sodipodi.sourceforge.net/DTD/sodipodi-0.dtd"
   xmlns:inkscape="http://www.inkscape.org/namespaces/inkscape"
   width="8"
   height="12"
   viewBox="0 0 8 12"
   version="1.1"
   id="svg39"
   inkscape:version="0.92.4 (5da689c313, 2019-01-14)"
   sodipodi:docname="svg.svg">
  <defs
     id="defs33" />
  <sodipodi:namedview
     id="base"
     pagecolor="#ffffff"
     bordercolor="#666666"
     borderopacity="1.0"
     inkscape:pageopacity="0.0"
     inkscape:pageshadow="2"
     inkscape:zoom="3.959798"
     inkscape:cx="94.783022"
     inkscape:cy="29.818594"
     inkscape:document-units="px"
     inkscape:current-layer="layer1"
     showgrid="false"
     units="px"
     inkscape:window-width="1368"
     inkscape:window-height="677"
     inkscape:window-x="0"
     inkscape:window-y="31"
     inkscape:window-maximized="1" />
  <metadata
     id="metadata36">
    <rdf:RDF>
      <cc:Work
         rdf:about="">
        <dc:format>image/svg+xml</dc:format>
        <dc:type
           rdf:resource="http://purl.org/dc/dcmitype/StillImage" />
        <dc:title></dc:title>
      </cc:Work>
    </rdf:RDF>
  </metadata>
  <g
     inkscape:label="Layer 1"
     inkscape:groupmode="layer"
     id="layer1"
     transform="translate(0,-293.82498)">
    <path
       style="fill:#999999;stroke-width:0.08990744"
       d="m 4.5643573,304.94393 c 0,-0.29112 0,-0.58224 0,-0.87336 -0.50134,0 -1.00269,0 -1.50403,0 0,0.2329 0,0.46579 0,0.69868 -0.50135,0 -1.00268,0 -1.50403,0 -0.0838,-0.55359 0.0315,-1.20005 0.61068,-1.51927 0.79991,-0.42712 1.80119,-0.42285 2.69579,-0.28543 0.62863,0.11998 1.38018,0.4976 1.37456,1.13775 0.0623,0.44699 -0.0862,0.92988 -0.095,1.34292 0.46702,0.0543 1.26282,0.50334 1.50645,-0.0499 0.44966,-0.99934 0.16786,-2.27063 -0.85118,-2.91584 -0.85339,-0.54147 -1.92041,-0.79016 -2.96563,-0.73997 -1.13792,-0.0312 -2.37894,0.18198 -3.17409,0.9617 -0.8523599,0.80996 -0.7906199,2.04808 -0.3017799,2.9991 0.0312,0.21223 0.3269299,0.0809 0.4938299,0.11698 1.23815,0 2.47628,0 3.71442,0 0,-0.29111 0,-0.58222 0,-0.87334 z m 3.23945,-3.97082 c 0,-0.19408 0,-0.38813 0,-0.58221 -1.83939,-0.33188 -3.68095,-0.66314 -5.52368,-0.97297 0.33123,-0.17053 0.97761,-0.18724 1.43633,-0.28054 1.35454,-0.20845 2.70423,-0.44038 4.05492,-0.6672 0.0269,-0.37408 0.18292,-0.76861 0.0387,-1.13107 -0.87044,0.0395 -1.72293,0.25755 -2.57868,0.40229 -1.6876,0.32052 -3.37546,0.64002 -5.0634799,0.95884 0,0.42811 0,0.85621 0,1.28432 2.5160599,0.52315 5.0280999,1.06196 7.5490699,1.56625 0.10771,-0.16735 0.0712,-0.39079 0.0867,-0.57771 z m -4.28274,-4.17792 c 0.81372,-0.22832 1.11525,-1.0004 1.64882,-1.51517 0.23682,-0.38097 1.163,-0.43962 1.20797,0.0807 0.12531,0.40342 -0.18784,0.87859 -0.0959,1.22006 0.50055,0.0886 1.37468,0.48842 1.54234,-0.18962 0.35859,-0.71026 0.1656,-1.62089 -0.55323,-2.09812 -0.73911,-0.50073 -1.78879,-0.52356 -2.64555,-0.27111 -0.73243,0.2303 -1.1121,0.8605 -1.50422,1.40402 -0.25247,0.39482 -0.95917,0.56353 -1.34561,0.23989 -0.40253,-0.45412 -0.10581,-1.08538 0.15714,-1.53561 -0.1331,-0.36132 -0.97318,-0.28009 -1.3823199,-0.30523 -0.54162,0.37232 -0.41608,1.05465 -0.43155,1.59008 -0.0476,0.59748 0.50515,1.06515 1.0529099,1.33105 0.6623,0.25379 1.42871,0.24137 2.12529,0.11762 l 0.1135,-0.0313 z"
       id="path21"
       inkscape:connector-curvature="0"
       inkscape:export-xdpi="96"
       inkscape:export-ydpi="96" />
  </g>
</svg>
