<?xml version="1.0" encoding="UTF-8" standalone="no"?>
<svg
   xmlns:dc="http://purl.org/dc/elements/1.1/"
   xmlns:cc="http://creativecommons.org/ns#"
   xmlns:rdf="http://www.w3.org/1999/02/22-rdf-syntax-ns#"
   xmlns:svg="http://www.w3.org/2000/svg"
   xmlns="http://www.w3.org/2000/svg"
   xmlns:sodipodi="http://sodipodi.sourceforge.net/DTD/sodipodi-0.dtd"
   xmlns:inkscape="http://www.inkscape.org/namespaces/inkscape"
   width="100"
   height="100"
   version="1.1"
   id="svg1609"
   sodipodi:docname="archive.svg"
   inkscape:version="0.92.4 (5da689c313, 2019-01-14)">
  <metadata
     id="metadata1615">
    <rdf:RDF>
      <cc:Work
         rdf:about="">
        <dc:format>image/svg+xml</dc:format>
        <dc:type
           rdf:resource="http://purl.org/dc/dcmitype/StillImage" />
      </cc:Work>
    </rdf:RDF>
  </metadata>
  <defs
     id="defs1613" />
  <sodipodi:namedview
     pagecolor="#ffffff"
     bordercolor="#666666"
     borderopacity="1"
     objecttolerance="10"
     gridtolerance="10"
     guidetolerance="10"
     inkscape:pageopacity="0"
     inkscape:pageshadow="2"
     inkscape:window-width="1920"
     inkscape:window-height="989"
     id="namedview1611"
     showgrid="false"
     inkscape:zoom="6.675088"
     inkscape:cx="50"
     inkscape:cy="50"
     inkscape:window-x="0"
     inkscape:window-y="31"
     inkscape:window-maximized="1"
     inkscape:current-layer="svg1609" />
  <path
     fill="#363A56"
     d="M67.75 0H17.833a5 5 0 0 0-5 5v90a5 5 0 0 0 5 5h65.333a5 5 0 0 0 5-5V20.417L67.75 0z"
     id="path1603"
     style="fill:#2aa198;fill-opacity:1" />
  <path
     fill="#FFF"
     d="M67.75 15.417a5 5 0 0 0 5 5h15.417L67.75 0v15.417z"
     opacity=".3"
     id="path1605" />
  <path
     fill="#FFF"
     d="M28.868 2.75h-3.069V0h3.069v2.75zm3.068 0h-3.069V5.5h3.069V2.75zM28.868 5.5h-3.069v2.75h3.069V5.5zm3.068 2.75h-3.069V11h3.069V8.25zM28.868 11h-3.069v2.75h3.069V11zm3.068 2.75h-3.069v2.75h3.069v-2.75zm-3.068 2.75h-3.069v2.75h3.069V16.5zm3.068 2.75h-3.069V22h3.069v-2.75zM28.868 22h-3.069v2.75h3.069V22zm3.068 2.75h-3.069v2.75h3.069v-2.75zm-3.068 2.75h-3.069v2.75h3.069V27.5zm3.068 2.75h-3.069V33h3.069v-2.75zM28.868 33h-3.069v2.75h3.069V33zm3.068 2.75h-3.069v2.75h3.069v-2.75zm-3.068 2.75h-3.069v2.75h3.069V38.5zm3.068 2.75h-3.069V44h3.069v-2.75zM28.868 44h-3.069v2.75h3.069V44zm3.068 2.75h-3.069v2.75h3.069v-2.75zm-3.068 2.75h-3.069v2.75h3.069V49.5zm3.068 2.75h-3.069V55h3.069v-2.75zM28.868 55h-3.069v2.75h3.069V55zm3.068 2.75h-3.069v2.75h3.069v-2.75zm1.598 11.5V60.5h-9.333v8.75h9.333zm0 1v2.5h-9.333v-2.5h9.333z"
     id="path1607"
     style="fill:#fdf6e3;fill-opacity:1" />
</svg>
