<?xml version="1.0" encoding="UTF-8" standalone="no"?>
<svg
   xmlns:dc="http://purl.org/dc/elements/1.1/"
   xmlns:cc="http://creativecommons.org/ns#"
   xmlns:rdf="http://www.w3.org/1999/02/22-rdf-syntax-ns#"
   xmlns:svg="http://www.w3.org/2000/svg"
   xmlns="http://www.w3.org/2000/svg"
   xmlns:sodipodi="http://sodipodi.sourceforge.net/DTD/sodipodi-0.dtd"
   xmlns:inkscape="http://www.inkscape.org/namespaces/inkscape"
   width="100"
   height="100"
   version="1.1"
   id="svg92"
   sodipodi:docname="folder.svg"
   inkscape:version="0.92.4 (5da689c313, 2019-01-14)">
  <metadata
     id="metadata98">
    <rdf:RDF>
      <cc:Work
         rdf:about="">
        <dc:format>image/svg+xml</dc:format>
        <dc:type
           rdf:resource="http://purl.org/dc/dcmitype/StillImage" />
      </cc:Work>
    </rdf:RDF>
  </metadata>
  <defs
     id="defs96" />
  <sodipodi:namedview
     pagecolor="#ffffff"
     bordercolor="#666666"
     borderopacity="1"
     objecttolerance="10"
     gridtolerance="10"
     guidetolerance="10"
     inkscape:pageopacity="0"
     inkscape:pageshadow="2"
     inkscape:window-width="1920"
     inkscape:window-height="989"
     id="namedview94"
     showgrid="false"
     inkscape:zoom="5.734636"
     inkscape:cx="1.541307"
     inkscape:cy="50"
     inkscape:window-x="0"
     inkscape:window-y="31"
     inkscape:window-maximized="1"
     inkscape:current-layer="svg92" />
  <path
     fill="#2AA8E2"
     d="M87.651 34.103l-.019-7.734c-.034-3.365-3.063-3.501-3.063-3.501l-43.695-.034c-.977 0-2.183-1.214-2.906-2.058a61.933 61.933 0 0 0-.634-1c-1.838-2.855-2.994-2.651-2.994-2.651H22.906l-6.772-.003c-3.846 0-3.846 3.47-3.846 3.47v13.512l75.363-.001z"
     id="path88"
     style="fill:#93a1a1;fill-opacity:1" />
  <path
     fill="#61D1F2"
     d="M87.7 34.016s-.034-3.535-3.54-3.535c-3.505 0-68.435.034-68.435.034s-3.402.17-3.402 3.638v45.805s0 2.921 2.898 2.921h69.005s3.487 0 3.487-3.086L87.7 34.016z"
     id="path90"
     style="fill:#6c71c4;fill-opacity:1" />
  <rect
     style="fill:#002b36;fill-opacity:1;stroke-width:0.05383965"
     id="rect197"
     width="7.0142722"
     height="13.38865"
     x="13.604872"
     y="51.631935" />
  <rect
     style="fill:#839496;fill-opacity:1;stroke-width:0.05383965"
     id="rect197-2"
     width="7.0142722"
     height="13.38865"
     x="51.004478"
     y="51.631935" />
  <rect
     style="fill:#586e75;fill-opacity:1;stroke-width:0.05383965"
     id="rect197-9"
     width="7.0142722"
     height="13.38865"
     x="32.304676"
     y="51.631935" />
  <rect
     style="fill:#073642;fill-opacity:1;stroke-width:0.05383965"
     id="rect197-1"
     width="7.0142722"
     height="13.38865"
     x="22.954777"
     y="51.631935" />
  <rect
     style="fill:#657b83;fill-opacity:1;stroke-width:0.05383965"
     id="rect197-27"
     width="7.0142722"
     height="13.38865"
     x="41.654583"
     y="51.631935" />
  <rect
     style="fill:#eee8d5;fill-opacity:1;stroke-width:0.05383965"
     id="rect197-0"
     width="7.0142722"
     height="13.38865"
     x="69.704292"
     y="51.631935" />
  <rect
     style="fill:#93a1a1;fill-opacity:1;stroke-width:0.05383965"
     id="rect197-93"
     width="7.0142722"
     height="13.38865"
     x="60.354385"
     y="51.631935" />
  <rect
     style="fill:#fdf6e3;fill-opacity:1;stroke-width:0.05383965"
     id="rect197-06"
     width="7.0142722"
     height="13.38865"
     x="79.054192"
     y="51.631935" />
  <rect
     style="fill:#b58900;fill-opacity:1;stroke-width:0.05383965"
     id="rect197-18"
     width="7.0142722"
     height="13.38865"
     x="13.406577"
     y="66.443153" />
  <rect
     style="fill:#6c71c4;fill-opacity:1;stroke-width:0.05383965"
     id="rect197-2-7"
     width="7.0142722"
     height="13.38865"
     x="50.80619"
     y="66.443153" />
  <rect
     style="fill:#dc322f;fill-opacity:1;stroke-width:0.05383965"
     id="rect197-9-9"
     width="7.0142722"
     height="13.38865"
     x="32.106384"
     y="66.443153" />
  <rect
     style="fill:#cb4b16;fill-opacity:1;stroke-width:0.05383965"
     id="rect197-1-2"
     width="7.0142722"
     height="13.38865"
     x="22.756479"
     y="66.443153" />
  <rect
     style="fill:#d33682;fill-opacity:1;stroke-width:0.05383965"
     id="rect197-27-0"
     width="7.0142722"
     height="13.38865"
     x="41.456284"
     y="66.443153" />
  <rect
     style="fill:#2aa198;fill-opacity:1;stroke-width:0.05383965"
     id="rect197-0-2"
     width="7.0142722"
     height="13.38865"
     x="69.505997"
     y="66.443153" />
  <rect
     style="fill:#268bd2;fill-opacity:1;stroke-width:0.05383965"
     id="rect197-93-3"
     width="7.0142722"
     height="13.38865"
     x="60.15609"
     y="66.443153" />
  <rect
     style="fill:#859900;fill-opacity:1;stroke-width:0.05383965"
     id="rect197-06-7"
     width="7.0142722"
     height="13.38865"
     x="78.855896"
     y="66.443153" />
</svg>
