<?xml version="1.0" encoding="UTF-8" standalone="no"?>
<svg
   xmlns:dc="http://purl.org/dc/elements/1.1/"
   xmlns:cc="http://creativecommons.org/ns#"
   xmlns:rdf="http://www.w3.org/1999/02/22-rdf-syntax-ns#"
   xmlns:svg="http://www.w3.org/2000/svg"
   xmlns="http://www.w3.org/2000/svg"
   xmlns:sodipodi="http://sodipodi.sourceforge.net/DTD/sodipodi-0.dtd"
   xmlns:inkscape="http://www.inkscape.org/namespaces/inkscape"
   width="100"
   height="100"
   version="1.1"
   id="svg959"
   sodipodi:docname="folder-home.svg"
   inkscape:version="0.92.4 (5da689c313, 2019-01-14)">
  <metadata
     id="metadata965">
    <rdf:RDF>
      <cc:Work
         rdf:about="">
        <dc:format>image/svg+xml</dc:format>
        <dc:type
           rdf:resource="http://purl.org/dc/dcmitype/StillImage" />
      </cc:Work>
    </rdf:RDF>
  </metadata>
  <defs
     id="defs963" />
  <sodipodi:namedview
     pagecolor="#ffffff"
     bordercolor="#666666"
     borderopacity="1"
     objecttolerance="10"
     gridtolerance="10"
     guidetolerance="10"
     inkscape:pageopacity="0"
     inkscape:pageshadow="2"
     inkscape:window-width="1920"
     inkscape:window-height="989"
     id="namedview961"
     showgrid="false"
     inkscape:zoom="9.44"
     inkscape:cx="32.415254"
     inkscape:cy="50"
     inkscape:window-x="0"
     inkscape:window-y="31"
     inkscape:window-maximized="1"
     inkscape:current-layer="svg959" />
  <path
     fill="#2AA8E2"
     d="M87.651 34.103l-.019-7.734c-.034-3.365-3.063-3.501-3.063-3.501l-43.695-.034c-.977 0-2.183-1.214-2.906-2.058a61.933 61.933 0 0 0-.634-1c-1.838-2.855-2.994-2.651-2.994-2.651H22.906l-6.772-.003c-3.846 0-3.846 3.47-3.846 3.47v13.512l75.363-.001z"
     id="path953"
     style="fill:#839496;fill-opacity:1" />
  <path
     fill="#61D1F2"
     d="M87.7 34.016s-.034-3.535-3.54-3.535c-3.505 0-68.435.034-68.435.034s-3.402.17-3.402 3.638v45.805s0 2.921 2.898 2.921h69.005s3.487 0 3.487-3.086L87.7 34.016z"
     id="path955"
     style="fill:#6c71c4;fill-opacity:1" />
  <path
     d="m 73.724847,70.165661 h -1.515 c -1.15,0 -2.017,-0.812 -2.017,-1.886 v -13.91 l -2.622,2.614 c -0.358,0.377 -0.879,0.595 -1.417,0.595 -0.538,0 -1.059,-0.218 -1.427,-0.603 l -0.881,-0.881 a 2,2 0 0 1 0,-2.852 l 7.703,-7.703 c 0.352,-0.37 0.872,-0.585 1.422,-0.585 0.536,0 1.059,0.214 1.429,0.585 l 7.703,7.703 c 0.373,0.389 0.585,0.908 0.585,1.431 0,0.523 -0.205,1.023 -0.579,1.413 l -0.895,0.894 a 2.03,2.03 0 0 1 -1.429,0.597 1.978,1.978 0 0 1 -1.427,-0.603 l -2.614,-2.606 v 13.91 c -0.001,1.075 -0.869,1.887 -2.019,1.887 z"
     id="path957"
     style="fill:#eee8d5;fill-opacity:1"
     inkscape:connector-curvature="0" />
  <circle
     style="fill:#002b36;fill-opacity:1;stroke:none;stroke-width:1.00172865;stroke-miterlimit:4;stroke-dasharray:none;stroke-opacity:1"
     id="path3298-1"
     cx="16.695885"
     cy="68.913567"
     inkscape:transform-center-x="2.563371"
     inkscape:transform-center-y="-0.12206517"
     r="2.9991357" />
  <circle
     style="fill:#fdf6e3;fill-opacity:1;stroke:none;stroke-width:1.00172865;stroke-miterlimit:4;stroke-dasharray:none;stroke-opacity:1"
     id="path3298-1-8"
     cx="82.250648"
     cy="68.913567"
     inkscape:transform-center-x="2.563371"
     inkscape:transform-center-y="-0.12206517"
     r="2.9991357" />
  <circle
     style="fill:#eee8d5;fill-opacity:1;stroke:none;stroke-width:1.00172865;stroke-miterlimit:4;stroke-dasharray:none;stroke-opacity:1"
     id="path3298-1-9"
     cx="72.885681"
     cy="68.913567"
     inkscape:transform-center-x="2.563371"
     inkscape:transform-center-y="-0.12206517"
     r="2.9991357" />
  <circle
     style="fill:#93a1a1;fill-opacity:1;stroke:none;stroke-width:1.00172865;stroke-miterlimit:4;stroke-dasharray:none;stroke-opacity:1"
     id="path3298-1-88"
     cx="63.520721"
     cy="68.913567"
     inkscape:transform-center-x="2.563371"
     inkscape:transform-center-y="-0.12206517"
     r="2.9991357" />
  <circle
     style="fill:#839496;fill-opacity:1;stroke:none;stroke-width:1.00172865;stroke-miterlimit:4;stroke-dasharray:none;stroke-opacity:1"
     id="path3298-1-0"
     cx="54.15575"
     cy="68.913567"
     inkscape:transform-center-x="2.563371"
     inkscape:transform-center-y="-0.12206517"
     r="2.9991357" />
  <circle
     style="fill:#657b83;fill-opacity:1;stroke:none;stroke-width:1.00172865;stroke-miterlimit:4;stroke-dasharray:none;stroke-opacity:1"
     id="path3298-1-3"
     cx="44.790787"
     cy="68.913567"
     inkscape:transform-center-x="2.563371"
     inkscape:transform-center-y="-0.12206517"
     r="2.9991357" />
  <circle
     style="fill:#586e75;fill-opacity:1;stroke:none;stroke-width:1.00172865;stroke-miterlimit:4;stroke-dasharray:none;stroke-opacity:1"
     id="path3298-1-7"
     cx="35.425819"
     cy="68.913567"
     inkscape:transform-center-x="2.563371"
     inkscape:transform-center-y="-0.12206517"
     r="2.9991357" />
  <circle
     style="fill:#073642;fill-opacity:1;stroke:none;stroke-width:1.00172865;stroke-miterlimit:4;stroke-dasharray:none;stroke-opacity:1"
     id="path3298-1-06"
     cx="26.060852"
     cy="68.913567"
     inkscape:transform-center-x="2.563371"
     inkscape:transform-center-y="-0.12206517"
     r="2.9991357" />
  <circle
     style="fill:#b58900;fill-opacity:1;stroke:none;stroke-width:1.00172865;stroke-miterlimit:4;stroke-dasharray:none;stroke-opacity:1"
     id="path3298-1-92"
     cx="16.690025"
     cy="78.678787"
     inkscape:transform-center-x="2.563371"
     inkscape:transform-center-y="-0.12206517"
     r="2.9991357" />
  <circle
     style="fill:#859900;fill-opacity:1;stroke:none;stroke-width:1.00172865;stroke-miterlimit:4;stroke-dasharray:none;stroke-opacity:1"
     id="path3298-1-8-1"
     cx="82.244789"
     cy="78.678787"
     inkscape:transform-center-x="2.563371"
     inkscape:transform-center-y="-0.12206517"
     r="2.9991357" />
  <circle
     style="fill:#2aa198;fill-opacity:1;stroke:none;stroke-width:1.00172865;stroke-miterlimit:4;stroke-dasharray:none;stroke-opacity:1"
     id="path3298-1-9-7"
     cx="72.879829"
     cy="78.678787"
     inkscape:transform-center-x="2.563371"
     inkscape:transform-center-y="-0.12206517"
     r="2.9991357" />
  <circle
     style="fill:#268bd2;fill-opacity:1;stroke:none;stroke-width:1.00172865;stroke-miterlimit:4;stroke-dasharray:none;stroke-opacity:1"
     id="path3298-1-88-7"
     cx="63.514862"
     cy="78.678787"
     inkscape:transform-center-x="2.563371"
     inkscape:transform-center-y="-0.12206517"
     r="2.9991357" />
  <circle
     style="fill:#6c71c4;fill-opacity:1;stroke:#fdf6e3;stroke-width:1.00172865;stroke-miterlimit:4;stroke-dasharray:none;stroke-opacity:1"
     id="path3298-1-0-9"
     cx="54.149891"
     cy="78.678787"
     inkscape:transform-center-x="2.563371"
     inkscape:transform-center-y="-0.12206517"
     r="2.9991357" />
  <circle
     style="fill:#d33682;fill-opacity:1;stroke:none;stroke-width:1.00172865;stroke-miterlimit:4;stroke-dasharray:none;stroke-opacity:1"
     id="path3298-1-3-7"
     cx="44.784927"
     cy="78.678787"
     inkscape:transform-center-x="2.563371"
     inkscape:transform-center-y="-0.12206517"
     r="2.9991357" />
  <circle
     style="fill:#dc322f;fill-opacity:1;stroke:none;stroke-width:1.00172865;stroke-miterlimit:4;stroke-dasharray:none;stroke-opacity:1"
     id="path3298-1-7-6"
     cx="35.41996"
     cy="78.678787"
     inkscape:transform-center-x="2.563371"
     inkscape:transform-center-y="-0.12206517"
     r="2.9991357" />
  <circle
     style="fill:#cb4b16;fill-opacity:1;stroke:none;stroke-width:1.00172865;stroke-miterlimit:4;stroke-dasharray:none;stroke-opacity:1"
     id="path3298-1-06-2"
     cx="26.054993"
     cy="78.678787"
     inkscape:transform-center-x="2.563371"
     inkscape:transform-center-y="-0.12206517"
     r="2.9991357" />
</svg>
