<?xml version="1.0" encoding="UTF-8" standalone="no"?>
<svg
   xmlns:dc="http://purl.org/dc/elements/1.1/"
   xmlns:cc="http://creativecommons.org/ns#"
   xmlns:rdf="http://www.w3.org/1999/02/22-rdf-syntax-ns#"
   xmlns:svg="http://www.w3.org/2000/svg"
   xmlns="http://www.w3.org/2000/svg"
   xmlns:sodipodi="http://sodipodi.sourceforge.net/DTD/sodipodi-0.dtd"
   xmlns:inkscape="http://www.inkscape.org/namespaces/inkscape"
   width="100"
   height="100"
   version="1.1"
   id="svg3579"
   sodipodi:docname="html5.svg"
   inkscape:version="0.92.4 (5da689c313, 2019-01-14)">
  <metadata
     id="metadata3585">
    <rdf:RDF>
      <cc:Work
         rdf:about="">
        <dc:format>image/svg+xml</dc:format>
        <dc:type
           rdf:resource="http://purl.org/dc/dcmitype/StillImage" />
      </cc:Work>
    </rdf:RDF>
  </metadata>
  <defs
     id="defs3583" />
  <sodipodi:namedview
     pagecolor="#ffffff"
     bordercolor="#666666"
     borderopacity="1"
     objecttolerance="10"
     gridtolerance="10"
     guidetolerance="10"
     inkscape:pageopacity="0"
     inkscape:pageshadow="2"
     inkscape:window-width="1920"
     inkscape:window-height="989"
     id="namedview3581"
     showgrid="false"
     inkscape:zoom="6.675088"
     inkscape:cx="50"
     inkscape:cy="61.984861"
     inkscape:window-x="0"
     inkscape:window-y="31"
     inkscape:window-maximized="1"
     inkscape:current-layer="svg3579" />
  <path
     d="M67.75 0H17.833a5 5 0 0 0-5 5v90a5 5 0 0 0 5 5h65.333a5 5 0 0 0 5-5V20.417L67.75 0z"
     id="path3573"
     fill="#FF543D"
     style="fill:#dc322f;fill-opacity:1" />
  <path
     d="M67.75 15.417a5 5 0 0 0 5 5h15.417L67.75 0v15.417z"
     id="path3575"
     fill="#FFF"
     opacity=".3" />
  <path
     style="fill:#eee8d5;stroke-width:0.16872789;fill-opacity:1"
     d="m 45.859814,80.616047 c -2.459211,-0.691844 -5.534275,-1.550522 -6.833476,-1.908172 -1.299201,-0.357641 -3.38721,-0.932511 -4.640019,-1.277468 -1.25281,-0.344965 -2.301303,-0.648314 -2.32999,-0.674104 -0.04547,-0.0409 -0.440452,-4.350108 -1.894427,-20.667963 C 29.975854,54.000332 29.674795,50.62155 29.492899,48.579943 28.245373,34.578445 27.977408,31.485728 27.976117,31.074429 l -0.0018,-0.464005 h 22.525202 22.525164 v 0.40408 c 0,0.222241 -0.305552,3.809823 -0.679002,7.972391 -0.373451,4.162571 -0.789781,8.821122 -0.925182,10.352325 -1.255135,14.193806 -2.452407,27.395998 -2.487115,27.425009 -0.02344,0.01948 -1.485154,0.430085 -3.248358,0.912331 -1.763206,0.482235 -4.382711,1.20554 -5.821113,1.607334 -8.104175,2.263739 -9.392289,2.618475 -9.459397,2.604944 -0.04055,-0.0079 -2.085805,-0.580934 -4.545015,-1.272791 z M 56.114197,70.581535 c 3.036915,-0.844774 5.638302,-1.598021 5.780839,-1.673889 0.206343,-0.109822 0.337715,-1.026452 0.644417,-4.496086 0.211883,-2.396965 0.528135,-5.914633 0.70279,-7.817039 0.174647,-1.902415 0.337364,-3.838563 0.361583,-4.302567 l 0.04406,-0.843633 -10.328224,0.04583 c -8.265716,0.03661 -10.328312,0.0035 -10.328716,-0.168722 -3.33e-4,-0.117977 -0.112796,-1.381847 -0.250048,-2.80861 -0.137261,-1.42677 -0.207319,-2.662471 -0.155686,-2.746005 0.0553,-0.0894 4.484788,-0.104286 10.768798,-0.03616 6.37631,0.06911 10.71298,0.05383 10.769405,-0.03801 0.05197,-0.08453 0.180879,-1.178718 0.286478,-2.431531 0.105607,-1.252801 0.23302,-2.486623 0.283142,-2.74182 l 0.09112,-0.464006 H 50.547882 36.311592 l 0.370931,4.09165 c 0.204026,2.250409 0.541793,6.072447 0.75063,8.493429 l 0.379691,4.401784 9.704971,0.112666 c 5.337726,0.06197 9.739695,0.147382 9.782154,0.189832 0.06478,0.06478 -0.458166,7.052583 -0.532243,7.111738 -0.0137,0.01097 -1.45645,0.406481 -3.206058,0.878956 l -3.181111,0.859029 -3.042875,-0.831888 c -1.673582,-0.457535 -3.074003,-0.863024 -3.112055,-0.901068 -0.03809,-0.03809 -0.16047,-1.084255 -0.272038,-2.324908 l -0.202859,-2.255702 -2.826191,-0.04625 c -1.554403,-0.02546 -2.825849,0.01255 -2.825427,0.08436 3.41e-4,0.0718 0.15106,1.763064 0.334748,3.758271 0.183678,1.995207 0.335186,3.952721 0.336687,4.350038 0.0018,0.52818 0.08207,0.75459 0.297987,0.842168 0.287952,0.1168 11.133734,3.18679 11.393298,3.224965 0.07189,0.01062 2.615459,-0.671954 5.652382,-1.516728 z m -24.050784,-48.112347 0.04512,-4.260381 h 1.349824 1.349824 l 0.04898,1.392005 0.04907,1.392004 h 1.342995 1.343003 v -1.441005 -1.441012 l 1.391993,0.04898 1.392011,0.04904 0.04512,4.260379 0.04512,4.260379 h -1.430265 -1.430257 l -0.04898,-1.392009 -0.04898,-1.392004 -1.307646,-0.04929 -1.307637,-0.0493 v 1.441287 1.441284 h -1.437087 -1.437077 z m 12.109125,1.392004 V 20.992816 H 42.90025 41.627971 l 0.04907,-1.392004 0.04898,-1.392005 3.922919,-0.04528 3.922928,-0.04527 v 1.42991 1.429902 l -1.223272,0.04955 -1.22328,0.04955 -0.04626,2.826192 -0.04625,2.826191 h -1.430122 -1.430107 z m 6.749111,-1.440757 v -4.309133 l 1.470854,0.04879 1.470855,0.04872 0.930114,1.49479 c 0.776175,1.247402 0.958607,1.447778 1.102241,1.210689 0.09467,-0.156264 0.53019,-0.847902 0.967807,-1.536975 l 0.79567,-1.252867 h 1.439974 1.439973 v 4.302558 4.302563 h -1.434188 -1.434181 l -0.0044,-2.066918 -0.0044,-2.066913 -0.897074,1.39354 c -0.493392,0.766453 -0.943079,1.439552 -0.999301,1.495771 -0.05627,0.05625 -0.542725,-0.570871 -1.081122,-1.393545 l -0.978902,-1.495766 -0.0474,2.066913 -0.0474,2.066918 h -1.344678 -1.344628 z m 11.136042,-2.53e-4 v -4.309383 l 1.392003,0.04898 1.392001,0.04904 0.08436,2.868375 0.08436,2.86837 1.982549,0.04758 1.982557,0.04751 v 1.344468 1.34447 H 65.51659 62.057674 v -4.309387 z"
     id="path3505"
     inkscape:connector-curvature="0"
     sodipodi:nodetypes="ccccccccccsscccccccccssccccccccscccccscccccccsccccscccccccccccccccccccccccccccccccccccccccccccccccccccccscccccccccccccccccccccccccccccccc" />
  <g
     id="g4216"
     transform="translate(-31.749059,-6.9605343)">
    <g
       transform="matrix(0.63937805,0,0,0.63937805,6.2268632,43.855291)"
       id="g2212">
      <rect
         style="fill:#002b36;fill-opacity:1;stroke-width:0.05383965"
         id="rect197"
         width="7.0142722"
         height="13.38865"
         x="83.358879"
         y="107.51024" />
      <rect
         style="fill:#839496;fill-opacity:1;stroke-width:0.05383965"
         id="rect197-2"
         width="7.0142722"
         height="13.38865"
         x="120.75848"
         y="107.51024" />
      <rect
         style="fill:#586e75;fill-opacity:1;stroke-width:0.05383965"
         id="rect197-9"
         width="7.0142722"
         height="13.38865"
         x="102.05868"
         y="107.51024" />
      <rect
         style="fill:#073642;fill-opacity:1;stroke-width:0.05383965"
         id="rect197-1"
         width="7.0142722"
         height="13.38865"
         x="92.708786"
         y="107.51024" />
      <rect
         style="fill:#657b83;fill-opacity:1;stroke-width:0.05383965"
         id="rect197-27"
         width="7.0142722"
         height="13.38865"
         x="111.40858"
         y="107.51024" />
      <rect
         style="fill:#eee8d5;fill-opacity:1;stroke-width:0.05383965"
         id="rect197-0"
         width="7.0142722"
         height="13.38865"
         x="139.4583"
         y="107.51024" />
      <rect
         style="fill:#93a1a1;fill-opacity:1;stroke-width:0.05383965"
         id="rect197-93"
         width="7.0142722"
         height="13.38865"
         x="130.10838"
         y="107.51024" />
      <rect
         style="fill:#fdf6e3;fill-opacity:1;stroke-width:0.05383965"
         id="rect197-06"
         width="7.0142722"
         height="13.38865"
         x="148.8082"
         y="107.51024" />
      <rect
         style="fill:#b58900;fill-opacity:1;stroke-width:0.05383965"
         id="rect197-18"
         width="7.0142722"
         height="13.38865"
         x="83.160583"
         y="122.32146" />
      <rect
         style="fill:#6c71c4;fill-opacity:1;stroke-width:0.05383965"
         id="rect197-2-7"
         width="7.0142722"
         height="13.38865"
         x="120.5602"
         y="122.32146" />
      <rect
         style="fill:#dc322f;fill-opacity:1;stroke-width:0.05383965"
         id="rect197-9-9"
         width="7.0142722"
         height="13.38865"
         x="101.86039"
         y="122.32146" />
      <rect
         style="fill:#cb4b16;fill-opacity:1;stroke-width:0.05383965"
         id="rect197-1-2"
         width="7.0142722"
         height="13.38865"
         x="92.510483"
         y="122.32146" />
      <rect
         style="fill:#d33682;fill-opacity:1;stroke-width:0.05383965"
         id="rect197-27-0"
         width="7.0142722"
         height="13.38865"
         x="111.21029"
         y="122.32146" />
      <rect
         style="fill:#2aa198;fill-opacity:1;stroke-width:0.05383965"
         id="rect197-0-2"
         width="7.0142722"
         height="13.38865"
         x="139.25999"
         y="122.32146" />
      <rect
         style="fill:#268bd2;fill-opacity:1;stroke-width:0.05383965"
         id="rect197-93-3"
         width="7.0142722"
         height="13.38865"
         x="129.9101"
         y="122.32146" />
      <rect
         style="fill:#859900;fill-opacity:1;stroke-width:0.05383965"
         id="rect197-06-7"
         width="7.0142722"
         height="13.38865"
         x="148.60989"
         y="122.32146" />
    </g>
  </g>
</svg>
