<?xml version="1.0" encoding="UTF-8" standalone="no"?>
<svg
   xmlns:dc="http://purl.org/dc/elements/1.1/"
   xmlns:cc="http://creativecommons.org/ns#"
   xmlns:rdf="http://www.w3.org/1999/02/22-rdf-syntax-ns#"
   xmlns:svg="http://www.w3.org/2000/svg"
   xmlns="http://www.w3.org/2000/svg"
   xmlns:sodipodi="http://sodipodi.sourceforge.net/DTD/sodipodi-0.dtd"
   xmlns:inkscape="http://www.inkscape.org/namespaces/inkscape"
   width="100"
   height="100"
   version="1.1"
   id="svg3579"
   sodipodi:docname="html5.svg"
   inkscape:version="0.92.4 (5da689c313, 2019-01-14)">
  <metadata
     id="metadata3585">
    <rdf:RDF>
      <cc:Work
         rdf:about="">
        <dc:format>image/svg+xml</dc:format>
        <dc:type
           rdf:resource="http://purl.org/dc/dcmitype/StillImage" />
      </cc:Work>
    </rdf:RDF>
  </metadata>
  <defs
     id="defs3583" />
  <sodipodi:namedview
     pagecolor="#ffffff"
     bordercolor="#666666"
     borderopacity="1"
     objecttolerance="10"
     gridtolerance="10"
     guidetolerance="10"
     inkscape:pageopacity="0"
     inkscape:pageshadow="2"
     inkscape:window-width="1920"
     inkscape:window-height="989"
     id="namedview3581"
     showgrid="false"
     inkscape:zoom="6.675088"
     inkscape:cx="75.513259"
     inkscape:cy="32.022709"
     inkscape:window-x="0"
     inkscape:window-y="31"
     inkscape:window-maximized="1"
     inkscape:current-layer="svg3579" />
  <path
     d="M67.75 0H17.833a5 5 0 0 0-5 5v90a5 5 0 0 0 5 5h65.333a5 5 0 0 0 5-5V20.417L67.75 0z"
     id="path3573"
     fill="#FF543D"
     style="fill:#dc322f;fill-opacity:1" />
  <path
     d="M67.75 15.417a5 5 0 0 0 5 5h15.417L67.75 0v15.417z"
     id="path3575"
     fill="#FFF"
     opacity=".3" />
  <path
     style="fill:#93a1a1;fill-opacity:1;stroke-width:0.39293757"
     d="m 17.853383,86.894299 0.08051,-12.942666 h 2.40976 2.409778 l 0.08747,4.228788 0.08766,4.228788 h 2.397567 2.397602 V 78.03156 73.653893 l 2.485044,0.148797 2.485079,0.148979 0.08051,12.942661 0.08051,12.942659 H 30.30149 27.748143 l -0.08747,-4.2288 -0.08747,-4.228786 -2.334476,-0.14974 -2.334458,-0.149769 v 4.378503 4.378499 h -2.565544 -2.56554 z m 21.61775,4.228788 V 82.409209 H 37.199801 34.92847 l 0.08766,-4.228788 0.08747,-4.228788 7.003375,-0.137558 7.003374,-0.137525 v 4.34394 4.343918 l -2.183837,0.150529 -2.183854,0.150529 -0.08266,8.585727 -0.08266,8.585722 H 42.02423 39.471133 Z M 51.519968,86.746192 V 73.65542 l 2.625828,0.14822 2.625829,0.148008 1.660493,4.541039 c 1.385654,3.789501 1.711353,4.398225 1.967768,3.67797 0.169063,-0.474717 0.946519,-2.575854 1.727778,-4.669198 L 63.54813,73.69536 h 2.5707 2.5707 V 86.766157 99.83697 h -2.560363 -2.560381 l -0.0071,-6.279113 -0.0071,-6.279107 -1.60149,4.233455 c -0.880822,2.328421 -1.683629,4.373235 -1.783995,4.544024 -0.10051,0.170882 -0.968907,-1.73426 -1.930065,-4.233471 l -1.747577,-4.544008 -0.08462,6.279107 -0.08462,6.279113 h -2.400606 -2.400494 z m 19.880565,-7.68e-4 V 73.653893 l 2.485062,0.148797 2.485061,0.148979 0.150674,8.713873 0.150675,8.713861 3.539339,0.144543 3.539355,0.144332 v 4.084378 4.084379 H 77.575661 71.40064 V 86.745493 Z"
     id="path3505-3"
     inkscape:connector-curvature="0"
     sodipodi:nodetypes="ccccccccccccccccccccccccccccccccccccccccccccccccscccccccccccccccccccccccccccccccc" />
  <path
     style="fill:#eee8d5;fill-opacity:1;stroke-width:0.16872789"
     d="M 45.859814,74.366234 C 43.400603,73.67439 40.325539,72.815712 39.026338,72.458062 37.727137,72.100421 35.639128,71.525551 34.386319,71.180594 33.133509,70.835629 32.085016,70.53228 32.056329,70.50649 32.010859,70.46559 31.615877,66.156382 30.161902,49.838527 29.975854,47.750519 29.674795,44.371737 29.492899,42.33013 28.245373,28.328632 27.977408,25.235915 27.976117,24.824616 l -0.0018,-0.464005 h 22.525202 22.525164 v 0.40408 c 0,0.222241 -0.305552,3.809823 -0.679002,7.972391 -0.373451,4.162571 -0.789781,8.821122 -0.925182,10.352325 -1.255135,14.193806 -2.452407,27.395998 -2.487115,27.425009 -0.02344,0.01948 -1.485154,0.430085 -3.248358,0.912331 -1.763206,0.482235 -4.382711,1.20554 -5.821113,1.607334 -8.104175,2.263739 -9.392289,2.618475 -9.459397,2.604944 -0.04055,-0.0079 -2.085805,-0.580934 -4.545015,-1.272791 z M 56.114197,64.331722 c 3.036915,-0.844774 5.638302,-1.598021 5.780839,-1.673889 0.206343,-0.109822 0.337715,-1.026452 0.644417,-4.496086 0.211883,-2.396965 0.528135,-5.914633 0.70279,-7.817039 0.174647,-1.902415 0.337364,-3.838563 0.361583,-4.302567 l 0.04406,-0.843633 -10.328224,0.04583 c -8.265716,0.03661 -10.328312,0.0035 -10.328716,-0.168722 -3.33e-4,-0.117977 -0.112796,-1.381847 -0.250048,-2.80861 -0.137261,-1.42677 -0.207319,-2.662471 -0.155686,-2.746005 0.0553,-0.0894 4.484788,-0.104286 10.768798,-0.03616 6.37631,0.06911 10.71298,0.05383 10.769405,-0.03801 0.05197,-0.08453 0.180879,-1.178718 0.286478,-2.431531 0.105607,-1.252801 0.23302,-2.486623 0.283142,-2.74182 l 0.09112,-0.464006 H 50.547882 36.311592 l 0.370931,4.09165 c 0.204026,2.250409 0.541793,6.072447 0.75063,8.493429 l 0.379691,4.401784 9.704971,0.112666 c 5.337726,0.06197 9.739695,0.147382 9.782154,0.189832 0.06478,0.06478 -0.458166,7.052583 -0.532243,7.111738 -0.0137,0.01097 -1.45645,0.406481 -3.206058,0.878956 l -3.181111,0.859029 -3.042875,-0.831888 c -1.673582,-0.457535 -3.074003,-0.863024 -3.112055,-0.901068 -0.03809,-0.03809 -0.16047,-1.084255 -0.272038,-2.324908 l -0.202859,-2.255702 -2.826191,-0.04625 c -1.554403,-0.02546 -2.825849,0.01255 -2.825427,0.08436 3.41e-4,0.0718 0.15106,1.763064 0.334748,3.758271 0.183678,1.995207 0.335186,3.952721 0.336687,4.350038 0.0018,0.52818 0.08207,0.75459 0.297987,0.842168 0.287952,0.1168 11.133734,3.18679 11.393298,3.224965 0.07189,0.01062 2.615459,-0.671954 5.652382,-1.516728 z"
     id="path3505"
     inkscape:connector-curvature="0"
     sodipodi:nodetypes="ccccccccccsscccccccccssccccccccscccccscccccccsccccsccccc" />
</svg>
