<?xml version="1.0" encoding="UTF-8" standalone="no"?>
<svg
   xmlns:dc="http://purl.org/dc/elements/1.1/"
   xmlns:cc="http://creativecommons.org/ns#"
   xmlns:rdf="http://www.w3.org/1999/02/22-rdf-syntax-ns#"
   xmlns:svg="http://www.w3.org/2000/svg"
   xmlns="http://www.w3.org/2000/svg"
   xmlns:sodipodi="http://sodipodi.sourceforge.net/DTD/sodipodi-0.dtd"
   xmlns:inkscape="http://www.inkscape.org/namespaces/inkscape"
   width="100"
   height="100"
   version="1.1"
   id="svg3579"
   sodipodi:docname="html5.svg"
   inkscape:version="0.92.4 (5da689c313, 2019-01-14)">
  <metadata
     id="metadata3585">
    <rdf:RDF>
      <cc:Work
         rdf:about="">
        <dc:format>image/svg+xml</dc:format>
        <dc:type
           rdf:resource="http://purl.org/dc/dcmitype/StillImage" />
      </cc:Work>
    </rdf:RDF>
  </metadata>
  <defs
     id="defs3583" />
  <sodipodi:namedview
     pagecolor="#ffffff"
     bordercolor="#666666"
     borderopacity="1"
     objecttolerance="10"
     gridtolerance="10"
     guidetolerance="10"
     inkscape:pageopacity="0"
     inkscape:pageshadow="2"
     inkscape:window-width="1920"
     inkscape:window-height="989"
     id="namedview3581"
     showgrid="false"
     inkscape:zoom="4.72"
     inkscape:cx="92.727264"
     inkscape:cy="32.022709"
     inkscape:window-x="0"
     inkscape:window-y="31"
     inkscape:window-maximized="1"
     inkscape:current-layer="svg3579" />
  <path
     d="M67.75 0H17.833a5 5 0 0 0-5 5v90a5 5 0 0 0 5 5h65.333a5 5 0 0 0 5-5V20.417L67.75 0z"
     id="path3573"
     style="fill:#dc322f;fill-opacity:1"
     fill="#FF543D" />
  <path
     style="fill:#eee8d5;fill-opacity:1;stroke-width:0.18403319"
     d="M 45.728907,78.191769 C 43.200305,77.391307 40.038471,76.397813 38.702609,75.984011 37.366749,75.57022 35.219825,74.905093 33.931665,74.505979 32.643502,74.106854 31.565426,73.755879 31.535928,73.726038 31.489184,73.678731 31.08305,68.692957 29.588046,49.813175 29.396759,47.397346 29.087195,43.488089 28.900165,41.125947 27.617438,24.926191 27.341912,21.347914 27.340584,20.872042 l -0.0019,-0.536855 H 50.49948 73.660238 v 0.46752 c 0,0.257138 -0.314176,4.407971 -0.698162,9.22407 -0.38399,4.816101 -0.812067,10.206052 -0.951289,11.977654 -1.29055,16.422257 -2.521608,31.697214 -2.557293,31.730779 -0.02408,0.02252 -1.527062,0.497609 -3.340019,1.055569 -1.812956,0.557947 -4.506376,1.394813 -5.985366,1.859688 -8.332851,2.619148 -9.657309,3.029579 -9.726313,3.013924 -0.0417,-0.0092 -2.144659,-0.67214 -4.67326,-1.472622 z M 56.272635,66.581822 c 3.122608,-0.977404 5.797397,-1.848909 5.943959,-1.936691 0.212161,-0.127061 0.347243,-1.187605 0.6626,-5.201978 0.217874,-2.773293 0.543035,-6.84324 0.722621,-9.044326 0.179566,-2.201096 0.346883,-4.441223 0.371785,-4.978078 l 0.04529,-0.976083 -10.619655,0.05303 c -8.498949,0.04236 -10.619745,0.0039 -10.620161,-0.195217 -3.41e-4,-0.136499 -0.115989,-1.5988 -0.257113,-3.249568 -0.141124,-1.650774 -0.213167,-3.080481 -0.160068,-3.17713 0.05685,-0.103428 4.611336,-0.120678 11.072663,-0.04183 6.55623,0.07996 11.015268,0.06229 11.073285,-0.04397 0.05344,-0.0978 0.185993,-1.36378 0.294561,-2.813284 0.108581,-1.449493 0.239596,-2.877029 0.29113,-3.172291 l 0.09368,-0.536855 H 50.549247 35.911251 l 0.381398,4.734044 c 0.20978,2.603728 0.557082,7.025832 0.771808,9.82691 l 0.390406,5.092874 9.978817,0.130342 c 5.488341,0.07168 10.014521,0.170512 10.058177,0.21962 0.06659,0.07495 -0.471093,8.159848 -0.547262,8.22829 -0.01402,0.01279 -1.497546,0.470299 -3.296523,1.016953 L 50.3772,61.510485 47.248465,60.547991 c -1.720807,-0.529369 -3.160744,-0.998521 -3.199868,-1.042537 -0.03916,-0.04406 -0.164989,-1.254487 -0.279714,-2.689923 l -0.208589,-2.609852 -2.905938,-0.05353 c -1.598263,-0.02951 -2.905586,0.0146 -2.905151,0.0976 3.52e-4,0.08306 0.15533,2.039865 0.344193,4.348324 0.188854,2.308458 0.344644,4.573305 0.346188,5.033002 0.0019,0.611106 0.08437,0.873062 0.306394,0.97439 0.296077,0.135129 11.447894,3.687119 11.714783,3.73129 0.07391,0.01219 2.689259,-0.777454 5.811876,-1.754857 z"
     id="path3505"
     inkscape:connector-curvature="0"
     sodipodi:nodetypes="ccccccccccsscccccccccssccccccccscccccscccccccsccccsccccc" />
  <path
     d="M67.75 15.417a5 5 0 0 0 5 5h15.417L67.75 0v15.417z"
     id="path3575"
     fill="#FFF"
     opacity=".3" />
</svg>
