<?xml version="1.0" encoding="UTF-8" standalone="no"?>
<svg
   xmlns:dc="http://purl.org/dc/elements/1.1/"
   xmlns:cc="http://creativecommons.org/ns#"
   xmlns:rdf="http://www.w3.org/1999/02/22-rdf-syntax-ns#"
   xmlns:svg="http://www.w3.org/2000/svg"
   xmlns="http://www.w3.org/2000/svg"
   xmlns:sodipodi="http://sodipodi.sourceforge.net/DTD/sodipodi-0.dtd"
   xmlns:inkscape="http://www.inkscape.org/namespaces/inkscape"
   width="100"
   height="100"
   version="1.1"
   id="svg2277"
   sodipodi:docname="text.svg"
   inkscape:version="0.92.4 (5da689c313, 2019-01-14)">
  <metadata
     id="metadata2283">
    <rdf:RDF>
      <cc:Work
         rdf:about="">
        <dc:format>image/svg+xml</dc:format>
        <dc:type
           rdf:resource="http://purl.org/dc/dcmitype/StillImage" />
      </cc:Work>
    </rdf:RDF>
  </metadata>
  <defs
     id="defs2281" />
  <sodipodi:namedview
     pagecolor="#ffffff"
     bordercolor="#666666"
     borderopacity="1"
     objecttolerance="10"
     gridtolerance="10"
     guidetolerance="10"
     inkscape:pageopacity="0"
     inkscape:pageshadow="2"
     inkscape:window-width="1920"
     inkscape:window-height="989"
     id="namedview2279"
     showgrid="false"
     inkscape:zoom="6.675088"
     inkscape:cx="50"
     inkscape:cy="50"
     inkscape:window-x="0"
     inkscape:window-y="31"
     inkscape:window-maximized="1"
     inkscape:current-layer="svg2277" />
  <path
     d="M67.75 0H17.833a5 5 0 0 0-5 5v90a5 5 0 0 0 5 5h65.333a5 5 0 0 0 5-5V20.417L67.75 0z"
     id="path2271"
     style="fill:#dc322f;fill-opacity:1"
     fill="#FFD300" />
  <path
     d="M67.75 15.417a5 5 0 0 0 5 5h15.417L67.75 0v15.417z"
     id="path2273"
     fill="#FFF"
     opacity=".3" />
  <g
     aria-label="*.txt"
     transform="matrix(1.7716521,0,0,2.3617438,45.952721,-21.382783)"
     style="font-style:normal;font-weight:normal;font-size:40px;line-height:1.25;font-family:sans-serif;letter-spacing:0px;word-spacing:0px;fill:#eee8d5;fill-opacity:1;stroke:none"
     id="flowRoot2864">
    <path
       d="m -13.644531,18.990234 v 4.96875 h 5.9218748 v 2.234375 h -5.9218748 v 9.5 q 0,2.140625 0.578125,2.75 0.59375,0.609375 2.390625,0.609375 h 2.9531248 v 2.40625 h -2.9531248 q -3.328125,0 -4.59375,-1.234375 -1.265625,-1.25 -1.265625,-4.53125 v -9.5 h -2.109375 v -2.234375 h 2.109375 v -4.96875 z"
       style="font-size:32px"
       id="path2894"
       inkscape:connector-curvature="0" />
    <path
       d="m 10.621094,23.958984 -6.3281253,8.515625 6.6562503,8.984375 H 7.5585937 l -5.0937499,-6.875 -5.0937501,6.875 h -3.3906249 l 6.79687495,-9.15625 -6.21874995,-8.34375 h 3.3906249 l 4.6406251,6.234375 4.6406249,-6.234375 z"
       style="font-size:32px"
       id="path2896"
       inkscape:connector-curvature="0" />
    <path
       d="m 17.855469,18.990234 v 4.96875 h 5.921875 v 2.234375 h -5.921875 v 9.5 q 0,2.140625 0.578125,2.75 0.59375,0.609375 2.390625,0.609375 h 2.953125 v 2.40625 h -2.953125 q -3.328125,0 -4.59375,-1.234375 -1.265625,-1.25 -1.265625,-4.53125 v -9.5 h -2.109375 v -2.234375 h 2.109375 v -4.96875 z"
       style="font-size:32px"
       id="path2898"
       inkscape:connector-curvature="0" />
  </g>
</svg>
