<?xml version="1.0" encoding="UTF-8" standalone="no"?>
<!-- Created with Inkscape (http://www.inkscape.org/) -->

<svg
   xmlns:dc="http://purl.org/dc/elements/1.1/"
   xmlns:cc="http://creativecommons.org/ns#"
   xmlns:rdf="http://www.w3.org/1999/02/22-rdf-syntax-ns#"
   xmlns:svg="http://www.w3.org/2000/svg"
   xmlns="http://www.w3.org/2000/svg"
   xmlns:sodipodi="http://sodipodi.sourceforge.net/DTD/sodipodi-0.dtd"
   xmlns:inkscape="http://www.inkscape.org/namespaces/inkscape"
   width="210mm"
   height="297mm"
   viewBox="0 0 210 297"
   version="1.1"
   id="svg8"
   inkscape:version="0.92.4 (5da689c313, 2019-01-14)"
   sodipodi:docname="cyber-canvas.svg">
  <defs
     id="defs2" />
  <sodipodi:namedview
     id="base"
     pagecolor="#ffffff"
     bordercolor="#666666"
     borderopacity="1.0"
     inkscape:pageopacity="0.0"
     inkscape:pageshadow="2"
     inkscape:zoom="0.7"
     inkscape:cx="-174.28571"
     inkscape:cy="548.57143"
     inkscape:document-units="mm"
     inkscape:current-layer="layer1"
     showgrid="false"
     inkscape:window-width="1920"
     inkscape:window-height="983"
     inkscape:window-x="0"
     inkscape:window-y="27"
     inkscape:window-maximized="1" />
  <metadata
     id="metadata5">
    <rdf:RDF>
      <cc:Work
         rdf:about="">
        <dc:format>image/svg+xml</dc:format>
        <dc:type
           rdf:resource="http://purl.org/dc/dcmitype/StillImage" />
        <dc:title></dc:title>
      </cc:Work>
    </rdf:RDF>
  </metadata>
  <g
     inkscape:label="Layer 1"
     inkscape:groupmode="layer"
     id="layer1">
    <path
       style="fill:#e0dedd;fill-opacity:1;stroke-width:0.41360021"
       d="m 56.256335,173.03309 c -4.8375,-0.6665 -8.3938,-1.31707 -8.89592,-1.6274 -0.39522,-0.24427 -0.35633,-0.77342 0.1743,-2.37096 1.31995,-3.97403 3.95396,-7.10667 7.48082,-8.897 2.01345,-1.02207 5.91023,-1.65766 8.31847,-1.35676 5.7379,0.71689 11.37196,5.75883 12.36799,11.06816 0.27616,1.47208 0.24771,1.51402 -1.30968,1.92959 -2.42879,0.6481 -11.08365,1.70348 -13.50416,1.6467 -1.18262,-0.0277 -3.26693,-0.20428 -4.63182,-0.39233 z M 33.034805,164.528 c -6.03877,-4.33133 -10.70187,-9.07955 -14.70176,-14.97008 -1.94592,-2.86571 -2.01686,-3.06273 -1.29989,-3.60995 2.99468,-2.28562 9.41706,-2.94615 13.56308,-1.39493 3.20442,1.19894 6.40632,4.23462 7.9126,7.50186 1.02564,2.22467 1.19965,3.11214 1.19965,6.11775 0,3.00051 -0.17464,3.89435 -1.19196,6.10061 -0.65558,1.42174 -1.42617,2.58499 -1.71241,2.58499 -0.28625,0 -1.98243,-1.0486 -3.76931,-2.33025 z m 51.66353,0.15885 c -1.03957,-1.97254 -1.14438,-2.56911 -1.14438,-6.5142 0,-3.95145 0.10379,-4.53975 1.15152,-6.52833 1.5363,-2.91579 4.00638,-5.31131 6.85249,-6.64567 2.01295,-0.94374 2.87936,-1.0952 6.2652,-1.0952 3.402735,0 4.247855,0.14929 6.307405,1.11452 1.30801,0.61299 2.37821,1.32705 2.37821,1.5868 0,1.16477 -4.72303,7.21012 -8.883205,11.3703 -4.11341,4.11341 -10.20259,8.88318 -11.34044,8.88318 -0.24334,0 -0.9574,-0.97712 -1.5868,-2.1714 z m -25.17957,-10.8736 c -3.28256,-1.66185 -3.14981,-6.63881 0.21425,-8.03224 3.64818,-1.51113 7.31034,2.13536 5.88122,5.85605 -0.84468,2.19912 -3.89741,3.28901 -6.09547,2.17619 z m -19.44317,-8.22413 c -1.73836,-0.76324 -2.63806,-2.15936 -2.63806,-4.09363 0,-1.27238 0.29053,-1.89427 1.40623,-3.00997 1.58274,-1.58272 3.2016,-1.82513 5.21965,-0.78156 1.53411,0.79332 2.05972,1.78632 2.05972,3.8912 0,3.13867 -3.19289,5.24733 -6.04754,3.99396 z m 39.2425,-0.0258 c -1.72172,-0.7484 -2.79743,-2.89812 -2.43008,-4.85631 0.56303,-3.00118 4.11088,-4.49571 6.74682,-2.84206 2.89199,1.81428 2.6133,6.42126 -0.46631,7.70798 -1.76024,0.73548 -2.13848,0.73454 -3.85043,-0.009 z m -67.26062,-10.03508 c -1.05424,-3.70078 -2.0605098,-12.95399 -1.74293,-16.02702 0.43718,-4.23035 1.54362,-11.2217 1.85589,-11.72694 0.22307,-0.36093 0.77995,-0.33572 2.23124,0.10114 2.84161,0.8552 5.42402,2.50472 7.03496,4.49361 1.89752,2.34271 2.57391,3.7647 3.17285,6.6704 1.33424,6.47294 -2.0051,13.11108 -8.05877,16.01969 -2.84542,1.36715 -4.19723,1.50831 -4.49324,0.4692 z m 94.658095,-0.45532 c -3.09219,-1.46842 -5.6297,-3.97755 -7.104277,-7.02483 -0.971988,-2.00867 -1.136128,-2.87383 -1.150708,-6.06527 -0.0141,-3.17937 0.14194,-4.06148 1.072888,-6.04683 0.599447,-1.27845 1.759277,-3.06536 2.577417,-3.97093 1.57583,-1.74426 5.38396,-3.97772 7.56872,-4.43904 1.30379,-0.27531 1.31162,-0.26673 1.75513,1.92013 1.70156,8.39003 1.70062,17.50879 -0.003,24.84129 -0.55569,2.39236 -1.13108,2.48818 -4.71662,0.78548 z m -75.068445,-9.27365 c -1.40788,-0.70009 -2.62286,-3.26577 -2.28179,-4.81856 1.15516,-5.25946 8.89182,-4.26226 8.89785,1.14688 0.002,1.9415 -2.25925,4.20047 -4.19649,4.19195 -0.76207,-0.003 -1.85086,-0.23747 -2.41957,-0.52027 z m 54.70814,-0.93241 c -1.33788,-1.33788 -1.44133,-1.61347 -1.24835,-3.32558 0.24977,-2.216 1.15088,-3.33884 3.11468,-3.88107 2.80846,-0.77545 5.54828,1.32973 5.54828,4.26305 0,1.84754 -0.65983,3.011 -2.14244,3.7777 -2.04078,1.05532 -3.63496,0.80311 -5.27217,-0.8341 z m -45.84937,-18.43531 c -1.80412,-0.50936 -2.7198,-1.70223 -2.963,-3.85997 -0.19298,-1.71211 -0.0896,-1.9877 1.24835,-3.325577 1.71378,-1.713797 3.47161,-1.918031 5.55817,-0.645779 2.29785,1.401066 2.51672,4.885466 0.4322,6.880436 -1.14998,1.10058 -2.60186,1.42348 -4.27572,0.95089 z m 38.18825,-0.40545 c -1.0162,-0.59188 -1.96459,-2.58257 -1.96459,-4.1237 0,-1.969099 2.30307,-4.115172 4.4162,-4.115172 1.96865,0 3.34766,0.913511 4.10109,2.716742 1.2454,2.98064 -0.82078,5.9802 -4.10282,5.95628 -0.94934,-0.006 -2.05178,-0.20228 -2.44988,-0.43415 z m -58.06033,-6.492528 c -1.16652,-0.416815 -2.62195,-1.086136 -3.23432,-1.487366 -1.27564,-0.835835 -1.40001,-0.514407 2.18076,-5.635775 4.13201,-5.909791 16.29598,-16.427341 17.67511,-15.282756 0.27782,0.230542 0.93542,1.390462 1.46134,2.577567 1.4441,3.259581 1.4008,8.739082 -0.0943,11.927615 -2.43836,5.200295 -6.97682,8.244184 -12.68906,8.510413 -2.33625,0.10896 -3.74073,-0.0527 -5.29955,-0.609698 z m 73.77547,0.312189 c -4.48313,-1.131563 -8.6659,-4.784246 -10.2127,-8.91846 -1.54409,-4.126946 -0.87862,-10.556474 1.40189,-13.544447 0.54721,-0.716952 0.7443,-0.645904 3.60995,1.301312 6.07185,4.125852 11.410935,9.444639 15.528295,15.469279 2.18734,3.200585 2.13064,3.435396 -1.17246,4.856357 -2.37384,1.021198 -6.814555,1.426678 -9.154975,0.835959 z m -35.3071,-1.997865 c -2.36827,-1.486834 -2.70944,-4.840662 -0.69716,-6.852955 3.94173,-3.941737 10.14616,1.829288 6.43353,5.98409 -1.49117,1.668777 -3.88478,2.031318 -5.73637,0.868865 z m -1.42747,-13.007952 c -4.1034,-1.163421 -7.29193,-3.805252 -9.22658,-7.644598 -1.45859,-2.894555 -1.72773,-4.510558 -0.79899,-4.797361 1.05747,-0.326555 8.09205,-1.393495 11.30886,-1.71522 3.30382,-0.330432 12.45656,0.64717 16.25906,1.73662 1.62154,0.464603 -0.19172,5.104408 -3.28878,8.415403 -3.367,3.599596 -9.55312,5.337858 -14.25357,4.005156 z"
       id="path848"
       inkscape:connector-curvature="0"
       sodipodi:nodetypes="cccccccccsccccscsscscsscsssccccccscssccssccccsccscccccccccccccccccccsccscscsccsccssccccccccccccccccsscccccscsccss" />
    <path
       style="fill:#e04c3e;stroke-width:0.16342902;fill-opacity:1"
       d="m 11.482364,166.38545 c -1.3391,-0.21716 -2.8683302,-1.02498 -3.4435602,-1.81905 -0.95699,-1.32109 -0.96902,-1.45964 -0.96902,-11.15302 0,-7.41441 0.04,-8.98215 0.24676,-9.67849 0.32318,-1.08828 1.44499,-2.34083 2.5048102,-2.79676 1.79915,-0.77397 4.80732,-0.85662 6.81848,-0.18736 1.28916,0.42902 2.22074,1.23168 2.79738,2.41031 0.41937,0.85716 0.46214,1.11951 0.5188,3.18265 l 0.0618,2.24849 -2.10226,-3.1e-4 -2.10227,-3.1e-4 -0.0146,-1.60525 c -0.0178,-1.95041 -0.27053,-2.50672 -1.32112,-2.90794 -1.53431,-0.58596 -3.02567,0.14524 -3.23557,1.58637 -0.0578,0.39663 -0.0824,4.1409 -0.0548,8.32059 l 0.0502,7.59946 0.37594,0.52705 c 0.82841,1.16142 3.14239,1.0747 3.86275,-0.14477 0.2278,-0.38563 0.29383,-0.89951 0.31301,-2.43626 l 0.0243,-1.94753 2.10084,-10e-4 2.10085,-0.001 -0.0656,2.57401 c -0.0568,2.23175 -0.11479,2.68499 -0.4358,3.4087 -0.45278,1.02077 -1.32641,1.89916 -2.32881,2.34148 -1.3472,0.59446 -3.75059,0.79695 -5.70239,0.48043 z m 95.962516,0.001 c -2.06396,-0.3433 -3.54248,-1.48265 -4.02275,-3.09989 -0.16941,-0.57045 -0.25609,-1.5161 -0.25609,-2.79381 v -1.93149 l 2.00201,1.7e-4 2.002,1.6e-4 0.0275,1.46376 c 0.0203,1.07407 0.10533,1.59541 0.31968,1.95827 0.78486,1.32866 3.09702,1.30856 3.90909,-0.034 0.26918,-0.44501 0.31883,-0.82544 0.31429,-2.40794 -0.008,-2.71837 0.004,-2.70362 -3.59005,-4.74364 -3.38344,-1.92069 -4.35838,-2.79899 -4.82083,-4.34286 -0.12548,-0.41892 -0.17226,-1.6737 -0.13648,-3.66082 l 0.0544,-3.02344 0.50403,-0.89885 c 0.86467,-1.54197 2.45912,-2.36159 4.98206,-2.56098 3.14708,-0.24873 5.63169,0.86534 6.53463,2.93006 0.29893,0.68354 0.3895,1.24466 0.44826,2.77693 l 0.0736,1.92028 h -2.06301 -2.06301 v -1.24187 c 0,-2.02165 -0.65916,-2.84385 -2.27996,-2.84385 -1.60707,0 -2.1919,0.81547 -2.17883,3.03813 0.0159,2.6986 0.0147,2.69712 3.7115,4.80646 4.59353,2.62103 5.1079,3.47836 4.95616,8.26101 -0.0925,2.91525 -0.34379,3.87438 -1.28183,4.89204 -0.35559,0.38576 -1.00651,0.85626 -1.44649,1.04553 -1.40544,0.6046 -3.78417,0.80937 -5.70002,0.49066 z m -81.903706,-0.34831 c 0.002,-0.11235 1.05653,-5.86709 2.34306,-12.78831 l 2.33915,-12.58404 2.6374,-0.0449 c 2.62617,-0.0447 2.63776,-0.0433 2.72291,0.32686 0.047,0.20446 1.04387,5.48299 2.21518,11.73007 1.17131,6.24707 2.22824,11.85473 2.34874,12.46146 l 0.21908,1.10314 h -2.10327 c -1.15681,0 -2.10845,-0.0184 -2.11476,-0.0408 -0.006,-0.0225 -0.21224,-1.29108 -0.4576,-2.81915 l -0.44611,-2.77828 h -2.43834 -2.43835 l -0.36232,2.28799 c -0.19928,1.25842 -0.40708,2.52702 -0.46177,2.81916 l -0.0994,0.53114 h -1.95374 c -1.45613,0 -1.95274,-0.052 -1.94982,-0.20428 z m 9.08296,-9.39716 c -0.0501,-0.24719 -0.42592,-2.61895 -0.83512,-5.27059 -0.83663,-5.42138 -0.89882,-5.77312 -1.00239,-5.66955 -0.0406,0.0406 -0.43653,2.38086 -0.87983,5.20056 -0.44328,2.8197 -0.84766,5.36574 -0.89859,5.65786 l -0.0926,0.53115 h 1.89983 1.89982 z m 11.66861,-3.22773 V 140.584 h 2.10347 2.10347 l 2.65538,7.8446 c 1.46046,4.31452 2.72019,7.84459 2.7994,7.84459 0.0811,0 0.14402,-3.42868 0.14402,-7.84459 v -7.8446 h 1.87944 1.87942 v 12.82919 12.82917 l -2.002,-6.2e-4 -2.00201,-6.2e-4 -2.7624,-8.21161 c -1.51933,-4.51646 -2.82472,-8.28155 -2.90087,-8.36695 -0.0762,-0.0854 -0.13846,3.61015 -0.13846,8.21232 v 8.36756 h -1.87943 -1.87943 z m 24.27245,12.62489 c -0.0375,-0.11235 -0.18701,-0.86616 -0.33219,-1.67514 -0.40685,-2.26696 -4.31256,-22.99546 -4.4112,-23.41121 -0.0871,-0.36697 -0.0829,-0.36771 2.04046,-0.36771 1.17023,0 2.12769,0.0275 2.12769,0.0612 0,0.13706 2.79002,18.03287 2.87781,18.45889 0.0522,0.25361 0.12915,0.42698 0.17086,0.38527 0.0568,-0.0568 2.9982,-18.54854 2.9982,-18.84855 0,-0.0312 0.88252,-0.0568 1.96115,-0.0568 1.46053,0 1.96088,0.0521 1.96009,0.20428 -6.1e-4,0.11236 -0.6577,3.69759 -1.46028,7.96717 -0.80258,4.26958 -1.79698,9.56468 -2.20978,11.76689 -0.4128,2.20221 -0.82726,4.39011 -0.92102,4.86201 l -0.17048,0.858 h -2.28155 c -1.6799,0 -2.29953,-0.0539 -2.34976,-0.20429 z m 12.66251,0.0971 c 0,-0.0589 0.36469,-2.06299 0.81042,-4.45344 0.44573,-2.39044 1.47579,-7.94986 2.28902,-12.35427 0.81323,-4.40441 1.51632,-8.1735 1.56241,-8.37574 0.0826,-0.36241 0.12128,-0.36771 2.68455,-0.36771 2.3357,0 2.60937,0.0292 2.68541,0.286 0.0466,0.1573 0.97433,5.02952 2.0617,10.82717 1.08736,5.79764 2.14564,11.42369 2.35172,12.50232 l 0.3747,1.96115 -2.039,0.0459 c -1.12145,0.0253 -2.06964,0.0153 -2.10708,-0.0222 -0.0374,-0.0374 -0.26633,-1.32672 -0.50861,-2.86505 l -0.44054,-2.79697 h -2.3999 c -2.1452,0 -2.40867,0.0303 -2.48252,0.286 -0.0455,0.15729 -0.23526,1.27883 -0.42182,2.49228 -0.18656,1.21347 -0.37637,2.37177 -0.4218,2.57401 -0.08,0.35628 -0.1435,0.36771 -2.04063,0.36771 -1.07691,0 -1.95803,-0.0482 -1.95803,-0.10718 z m 9.15202,-9.1484 c 0,-0.17089 -1.6352,-10.56925 -1.72793,-10.98797 -0.0471,-0.21285 -0.12123,-0.35147 -0.16466,-0.30803 -0.0434,0.0434 -0.44527,2.42387 -0.89296,5.28987 -0.44769,2.86599 -0.85568,5.41314 -0.90664,5.66033 l -0.0926,0.44943 h 1.89242 c 1.04082,0 1.89241,-0.0466 1.89241,-0.10363 z"
       id="path848-3"
       inkscape:connector-curvature="0"
       sodipodi:nodetypes="ccscccccccccccccsccccccccccccscccccccccccsscccccsssccsccccscccsccscsccccccscccccccccccccccssscccccccccscccccccsscsssccsccscccccscsccccccscccsccscssccss" />
    <rect
       style="opacity:1;fill:#2f3f4f;fill-opacity:1;fill-rule:nonzero;stroke:none;stroke-width:1.85345185;stroke-miterlimit:4;stroke-dasharray:none;stroke-opacity:1"
       id="rect6200-4"
       width="128.05345"
       height="19.071793"
       x="-198.96422"
       y="145.52003" />
    <rect
       style="opacity:1;fill:#be643c;fill-opacity:1;fill-rule:nonzero;stroke:none;stroke-width:1.85345185;stroke-miterlimit:4;stroke-dasharray:none;stroke-opacity:1"
       id="rect6200"
       width="128.05345"
       height="19.071793"
       x="-198.96422"
       y="126.44823" />
    <path
       id="path1784-74-8-6-7"
       d="m -182.47901,153.69362 a 6.4989862,6.4989862 0 0 1 -6.49898,6.49898 6.4989862,6.4989862 0 0 1 -6.49898,-6.49898 6.4989862,6.4989862 0 0 1 6.49898,-6.49898 6.4989862,6.4989862 0 0 1 6.49898,6.49898 z"
       style="opacity:0.98000004;fill:#e34c3d;fill-opacity:1;fill-rule:nonzero;stroke:none;stroke-width:0.30395284;stroke-miterlimit:4;stroke-dasharray:none;stroke-opacity:1"
       inkscape:connector-curvature="0"
       inkscape:export-xdpi="96"
       inkscape:export-ydpi="96" />
    <path
       id="path1784-74-0-9-9-5"
       d="m -73.654952,153.69362 a 6.4989862,6.4989862 0 0 1 -6.498981,6.49898 6.4989862,6.4989862 0 0 1 -6.49898,-6.49898 6.4989862,6.4989862 0 0 1 6.49898,-6.49898 6.4989862,6.4989862 0 0 1 6.498981,6.49898 z"
       style="opacity:0.98000004;fill:#bb633d;fill-opacity:1;fill-rule:nonzero;stroke:none;stroke-width:0.30395284;stroke-miterlimit:4;stroke-dasharray:none;stroke-opacity:1"
       inkscape:connector-curvature="0"
       inkscape:export-xdpi="96"
       inkscape:export-ydpi="96" />
    <path
       id="path1784-74-1-6-3-9"
       d="m -89.201243,153.69362 a 6.4989862,6.4989862 0 0 1 -6.498999,6.49898 6.4989862,6.4989862 0 0 1 -6.498958,-6.49898 6.4989862,6.4989862 0 0 1 6.498958,-6.49898 6.4989862,6.4989862 0 0 1 6.498999,6.49898 z"
       style="opacity:0.98000004;fill:#9958b4;fill-opacity:1;fill-rule:nonzero;stroke:none;stroke-width:0.30395284;stroke-miterlimit:4;stroke-dasharray:none;stroke-opacity:1"
       inkscape:connector-curvature="0"
       inkscape:export-xdpi="96"
       inkscape:export-ydpi="96" />
    <path
       id="path1784-74-11-7-0-2"
       d="m -104.74753,153.69362 a 6.4989862,6.4989862 0 0 1 -6.49898,6.49898 6.4989862,6.4989862 0 0 1 -6.49899,-6.49898 6.4989862,6.4989862 0 0 1 6.49899,-6.49898 6.4989862,6.4989862 0 0 1 6.49898,6.49898 z"
       style="opacity:0.98000004;fill:#3496d9;fill-opacity:1;fill-rule:nonzero;stroke:none;stroke-width:0.30395284;stroke-miterlimit:4;stroke-dasharray:none;stroke-opacity:1"
       inkscape:connector-curvature="0"
       inkscape:export-xdpi="96"
       inkscape:export-ydpi="96" />
    <path
       id="path1784-74-21-8-9-2"
       d="m -120.29384,153.69362 a 6.4989862,6.4989862 0 0 1 -6.49898,6.49898 6.4989862,6.4989862 0 0 1 -6.49899,-6.49898 6.4989862,6.4989862 0 0 1 6.49899,-6.49898 6.4989862,6.4989862 0 0 1 6.49898,6.49898 z"
       style="opacity:0.98000004;fill:#1ab99b;fill-opacity:1;fill-rule:nonzero;stroke:none;stroke-width:0.30395284;stroke-miterlimit:4;stroke-dasharray:none;stroke-opacity:1"
       inkscape:connector-curvature="0"
       inkscape:export-xdpi="96"
       inkscape:export-ydpi="96" />
    <path
       id="path1784-74-6-5-1-8"
       d="m -135.84012,153.69362 a 6.4989862,6.4989862 0 0 1 -6.499,6.49898 6.4989862,6.4989862 0 0 1 -6.49898,-6.49898 6.4989862,6.4989862 0 0 1 6.49898,-6.49898 6.4989862,6.4989862 0 0 1 6.499,6.49898 z"
       style="opacity:0.98000004;fill:#2ec971;fill-opacity:1;fill-rule:nonzero;stroke:none;stroke-width:0.30395284;stroke-miterlimit:4;stroke-dasharray:none;stroke-opacity:1"
       inkscape:connector-curvature="0"
       inkscape:export-xdpi="96"
       inkscape:export-ydpi="96" />
    <path
       id="path1784-74-5-4-4-9"
       d="m -151.38643,153.69362 a 6.4989862,6.4989862 0 0 1 -6.49898,6.49898 6.4989862,6.4989862 0 0 1 -6.49898,-6.49898 6.4989862,6.4989862 0 0 1 6.49898,-6.49898 6.4989862,6.4989862 0 0 1 6.49898,6.49898 z"
       style="opacity:0.98000004;fill:#edc111;fill-opacity:1;fill-rule:nonzero;stroke:none;stroke-width:0.30395284;stroke-miterlimit:4;stroke-dasharray:none;stroke-opacity:1"
       inkscape:connector-curvature="0"
       inkscape:export-xdpi="96"
       inkscape:export-ydpi="96" />
    <path
       id="path1784-74-06-2-7-7"
       d="m -166.93272,153.69362 a 6.4989862,6.4989862 0 0 1 -6.49898,6.49898 6.4989862,6.4989862 0 0 1 -6.49898,-6.49898 6.4989862,6.4989862 0 0 1 6.49898,-6.49898 6.4989862,6.4989862 0 0 1 6.49898,6.49898 z"
       style="opacity:0.98000004;fill:#e27d23;fill-opacity:1;fill-rule:nonzero;stroke:none;stroke-width:0.30395284;stroke-miterlimit:4;stroke-dasharray:none;stroke-opacity:1"
       inkscape:connector-curvature="0"
       inkscape:export-xdpi="96"
       inkscape:export-ydpi="96" />
    <path
       id="path1784-74-8-6-3"
       d="m -182.47901,135.86028 a 6.4989862,6.4989862 0 0 1 -6.499,6.49898 6.4989862,6.4989862 0 0 1 -6.49898,-6.49898 6.4989862,6.4989862 0 0 1 6.49898,-6.49898 6.4989862,6.4989862 0 0 1 6.499,6.49898 z"
       style="opacity:0.98000004;fill:#2c3e50;fill-opacity:1;fill-rule:nonzero;stroke:none;stroke-width:0.30395284;stroke-miterlimit:4;stroke-dasharray:none;stroke-opacity:1"
       inkscape:connector-curvature="0"
       inkscape:export-xdpi="96"
       inkscape:export-ydpi="96" />
    <path
       id="path1784-74-0-9-9-6"
       d="m -73.654952,135.86028 a 6.4989862,6.4989862 0 0 1 -6.498981,6.49898 6.4989862,6.4989862 0 0 1 -6.49898,-6.49898 6.4989862,6.4989862 0 0 1 6.49898,-6.49898 6.4989862,6.4989862 0 0 1 6.498981,6.49898 z"
       style="opacity:0.98000004;fill:#ecf0f1;fill-opacity:1;fill-rule:nonzero;stroke:none;stroke-width:0.30395284;stroke-miterlimit:4;stroke-dasharray:none;stroke-opacity:1"
       inkscape:connector-curvature="0"
       inkscape:export-xdpi="96"
       inkscape:export-ydpi="96" />
    <path
       id="path1784-74-1-6-3-1"
       d="m -89.201243,135.86028 a 6.4989862,6.4989862 0 0 1 -6.498999,6.49898 6.4989862,6.4989862 0 0 1 -6.498978,-6.49898 6.4989862,6.4989862 0 0 1 6.498978,-6.49898 6.4989862,6.4989862 0 0 1 6.498999,6.49898 z"
       style="opacity:0.98000004;fill:#f5f5f5;fill-opacity:1;fill-rule:nonzero;stroke:none;stroke-width:0.30395284;stroke-miterlimit:4;stroke-dasharray:none;stroke-opacity:1"
       inkscape:connector-curvature="0"
       inkscape:export-xdpi="96"
       inkscape:export-ydpi="96" />
    <path
       id="path1784-74-11-7-0-29"
       d="m -104.74753,135.86028 a 6.4989862,6.4989862 0 0 1 -6.49898,6.49898 6.4989862,6.4989862 0 0 1 -6.49899,-6.49898 6.4989862,6.4989862 0 0 1 6.49899,-6.49898 6.4989862,6.4989862 0 0 1 6.49898,6.49898 z"
       style="opacity:0.98000004;fill:#e0e0e0;fill-opacity:1;fill-rule:nonzero;stroke:none;stroke-width:0.30395284;stroke-miterlimit:4;stroke-dasharray:none;stroke-opacity:1"
       inkscape:connector-curvature="0"
       inkscape:export-xdpi="96"
       inkscape:export-ydpi="96" />
    <path
       id="path1784-74-21-8-9-3"
       d="m -120.29384,135.86028 a 6.4989862,6.4989862 0 0 1 -6.49898,6.49898 6.4989862,6.4989862 0 0 1 -6.49899,-6.49898 6.4989862,6.4989862 0 0 1 6.49899,-6.49898 6.4989862,6.4989862 0 0 1 6.49898,6.49898 z"
       style="opacity:0.98000004;fill:#bdc3c7;fill-opacity:1;fill-rule:nonzero;stroke:none;stroke-width:0.30395284;stroke-miterlimit:4;stroke-dasharray:none;stroke-opacity:1"
       inkscape:connector-curvature="0"
       inkscape:export-xdpi="96"
       inkscape:export-ydpi="96" />
    <path
       id="path1784-74-6-5-1-1"
       d="m -135.84012,135.86028 a 6.4989862,6.4989862 0 0 1 -6.499,6.49898 6.4989862,6.4989862 0 0 1 -6.49898,-6.49898 6.4989862,6.4989862 0 0 1 6.49898,-6.49898 6.4989862,6.4989862 0 0 1 6.499,6.49898 z"
       style="opacity:0.98000004;fill:#95a5a6;fill-opacity:1;fill-rule:nonzero;stroke:none;stroke-width:0.30395284;stroke-miterlimit:4;stroke-dasharray:none;stroke-opacity:1"
       inkscape:connector-curvature="0"
       inkscape:export-xdpi="96"
       inkscape:export-ydpi="96" />
    <path
       id="path1784-74-5-4-4-94"
       d="m -151.38643,135.86028 a 6.4989862,6.4989862 0 0 1 -6.49898,6.49898 6.4989862,6.4989862 0 0 1 -6.49898,-6.49898 6.4989862,6.4989862 0 0 1 6.49898,-6.49898 6.4989862,6.4989862 0 0 1 6.49898,6.49898 z"
       style="opacity:0.98000004;fill:#7f8c8d;fill-opacity:1;fill-rule:nonzero;stroke:none;stroke-width:0.30395284;stroke-miterlimit:4;stroke-dasharray:none;stroke-opacity:1"
       inkscape:connector-curvature="0"
       inkscape:export-xdpi="96"
       inkscape:export-ydpi="96" />
    <path
       id="path1784-74-06-2-7-78"
       d="m -166.93272,135.86028 a 6.4989862,6.4989862 0 0 1 -6.49898,6.49898 6.4989862,6.4989862 0 0 1 -6.49898,-6.49898 6.4989862,6.4989862 0 0 1 6.49898,-6.49898 6.4989862,6.4989862 0 0 1 6.49898,6.49898 z"
       style="opacity:0.98000004;fill:#34495e;fill-opacity:1;fill-rule:nonzero;stroke:none;stroke-width:0.30395284;stroke-miterlimit:4;stroke-dasharray:none;stroke-opacity:1"
       inkscape:connector-curvature="0"
       inkscape:export-xdpi="96"
       inkscape:export-ydpi="96" />
    <flowRoot
       xml:space="preserve"
       id="flowRoot2037"
       style="font-style:normal;font-weight:normal;font-size:40px;line-height:1.25;font-family:sans-serif;text-align:center;letter-spacing:0px;word-spacing:0px;text-anchor:middle;fill:#e04c3e;fill-opacity:1;stroke:none;"
       transform="matrix(0.26458333,0,0,0.26458333,151.19048,-142.19476)"><flowRegion
         id="flowRegion2039"
         style="text-align:center;text-anchor:middle;fill:#e04c3e;fill-opacity:1;"><rect
           id="rect2041"
           width="931.42859"
           height="244.28574"
           x="-807.14288"
           y="831.09113"
           style="text-align:center;text-anchor:middle;fill:#e04c3e;fill-opacity:1;" /></flowRegion><flowPara
         id="flowPara2043"
         style="font-style:normal;font-variant:normal;font-weight:normal;font-stretch:normal;font-size:96px;font-family:Karla;-inkscape-font-specification:Karla;text-align:center;text-anchor:middle;fill:#e04c3e;fill-opacity:1;">CYBER</flowPara><flowPara
         style="font-style:normal;font-variant:normal;font-weight:normal;font-stretch:normal;font-size:96px;font-family:Karla;-inkscape-font-specification:Karla;text-align:center;text-anchor:middle;fill:#e04c3e;fill-opacity:1;"
         id="flowPara2045">SECURITY</flowPara></flowRoot>  </g>
</svg>
