<?xml version="1.0" encoding="UTF-8" standalone="no"?>
<!-- Created with Inkscape (http://www.inkscape.org/) -->

<svg
   xmlns:dc="http://purl.org/dc/elements/1.1/"
   xmlns:cc="http://creativecommons.org/ns#"
   xmlns:rdf="http://www.w3.org/1999/02/22-rdf-syntax-ns#"
   xmlns:svg="http://www.w3.org/2000/svg"
   xmlns="http://www.w3.org/2000/svg"
   xmlns:sodipodi="http://sodipodi.sourceforge.net/DTD/sodipodi-0.dtd"
   xmlns:inkscape="http://www.inkscape.org/namespaces/inkscape"
   width="210mm"
   height="297mm"
   viewBox="0 0 210 297"
   version="1.1"
   id="svg8"
   inkscape:version="0.92.4 (5da689c313, 2019-01-14)"
   sodipodi:docname="cyber-canvas.svg">
  <defs
     id="defs2" />
  <sodipodi:namedview
     id="base"
     pagecolor="#ffffff"
     bordercolor="#666666"
     borderopacity="1.0"
     inkscape:pageopacity="0.0"
     inkscape:pageshadow="2"
     inkscape:zoom="0.7"
     inkscape:cx="148.26378"
     inkscape:cy="547.85714"
     inkscape:document-units="mm"
     inkscape:current-layer="layer1"
     showgrid="false"
     inkscape:window-width="1920"
     inkscape:window-height="989"
     inkscape:window-x="0"
     inkscape:window-y="31"
     inkscape:window-maximized="1" />
  <metadata
     id="metadata5">
    <rdf:RDF>
      <cc:Work
         rdf:about="">
        <dc:format>image/svg+xml</dc:format>
        <dc:type
           rdf:resource="http://purl.org/dc/dcmitype/StillImage" />
        <dc:title />
      </cc:Work>
    </rdf:RDF>
  </metadata>
  <g
     inkscape:label="Layer 1"
     inkscape:groupmode="layer"
     id="layer1">
    <path
       style="fill:#000000;fill-opacity:0;stroke-width:0.07992712"
       d="m 154.40767,189.19052 c -0.86943,-0.13848 -1.5086,-0.27366 -1.59884,-0.33815 -0.071,-0.0507 -0.064,-0.1607 0.0313,-0.49264 0.23723,-0.82575 0.71063,-1.47666 1.3445,-1.84866 0.36188,-0.21237 1.06223,-0.34445 1.49506,-0.28192 1.03126,0.14896 2.04385,1.1966 2.22286,2.2998 0.0496,0.30587 0.0445,0.31458 -0.23538,0.40094 -0.43652,0.13466 -1.99203,0.35395 -2.42707,0.34215 -0.21254,-0.006 -0.58715,-0.0425 -0.83246,-0.0815 z m -4.17354,-1.76723 c -1.08533,-0.89998 -1.92342,-1.88658 -2.64231,-3.11055 -0.34973,-0.59545 -0.36248,-0.63638 -0.23363,-0.75009 0.53823,-0.47491 1.69251,-0.61216 2.43766,-0.28984 0.57592,0.24912 1.15139,0.87989 1.42211,1.55877 0.18433,0.46225 0.21561,0.64665 0.21561,1.27117 0,0.62346 -0.0314,0.80919 -0.21423,1.26761 -0.11783,0.29542 -0.25632,0.53712 -0.30777,0.53712 -0.0515,0 -0.35629,-0.21787 -0.67744,-0.48419 z m 9.28534,0.033 c -0.18684,-0.40986 -0.20568,-0.53382 -0.20568,-1.35355 0,-0.82105 0.0187,-0.94329 0.20696,-1.35648 0.27611,-0.60586 0.72006,-1.10362 1.23158,-1.38087 0.36178,-0.19609 0.5175,-0.22757 1.12603,-0.22757 0.61156,0 0.76345,0.031 1.13361,0.23158 0.23508,0.12737 0.42743,0.27575 0.42743,0.32971 0,0.24202 -0.84886,1.49815 -1.59656,2.36258 -0.73929,0.8547 -1.83368,1.84578 -2.03818,1.84578 -0.0437,0 -0.17207,-0.20302 -0.28519,-0.45118 z m -4.52546,-2.25936 c -0.58996,-0.34531 -0.5661,-1.37945 0.0385,-1.66898 0.65568,-0.31399 1.31387,0.44369 1.05702,1.21679 -0.15181,0.45695 -0.70047,0.68341 -1.09552,0.45219 z m -3.49446,-1.70885 c -0.31243,-0.15859 -0.47413,-0.44868 -0.47413,-0.85059 0,-0.26438 0.0522,-0.39361 0.25273,-0.62543 0.28447,-0.32886 0.57542,-0.37923 0.93812,-0.16239 0.27572,0.16483 0.37019,0.37117 0.37019,0.80852 0,0.65217 -0.57385,1.09032 -1.08691,0.82989 z m 7.05294,-0.006 c -0.30944,-0.1555 -0.50277,-0.60218 -0.43675,-1.00906 0.10119,-0.6236 0.73884,-0.93414 1.21259,-0.59054 0.51977,0.37698 0.46968,1.33424 -0.0838,1.6016 -0.31637,0.15282 -0.38434,0.15263 -0.69203,-0.002 z m -12.08856,-2.08513 c -0.18948,-0.76897 -0.37033,-2.69164 -0.31325,-3.33017 0.0786,-0.879 0.27743,-2.33169 0.33355,-2.43667 0.0401,-0.075 0.14018,-0.0698 0.40102,0.021 0.51071,0.17769 0.97484,0.52044 1.26437,0.9337 0.34104,0.48678 0.4626,0.78225 0.57025,1.386 0.2398,1.34498 -0.36037,2.72428 -1.44838,3.32864 -0.5114,0.28408 -0.75436,0.31341 -0.80756,0.0975 z m 17.01263,-0.0946 c -0.55575,-0.30512 -1.01181,-0.82648 -1.27683,-1.45965 -0.17469,-0.41737 -0.20419,-0.59714 -0.20681,-1.26027 -0.002,-0.66062 0.0255,-0.84391 0.19283,-1.25643 0.10773,-0.26565 0.31618,-0.63694 0.46323,-0.8251 0.28322,-0.36244 0.96764,-0.82651 1.3603,-0.92237 0.23433,-0.0572 0.23574,-0.0554 0.31545,0.39898 0.30581,1.74332 0.30564,3.63805 -3.6e-4,5.16163 -0.0999,0.4971 -0.20329,0.517 -0.84771,0.16321 z m -13.49184,-1.92693 c -0.25303,-0.14546 -0.4714,-0.67857 -0.4101,-1.00121 0.20762,-1.09283 1.5981,-0.88563 1.59919,0.23831 3.6e-4,0.40341 -0.40605,0.87278 -0.75422,0.87101 -0.13697,-4.2e-4 -0.33265,-0.0494 -0.43487,-0.10811 z m 9.83254,-0.19373 c -0.24045,-0.27799 -0.25904,-0.33525 -0.22436,-0.691 0.0449,-0.46045 0.20684,-0.69377 0.55979,-0.80643 0.50476,-0.16112 0.99718,0.27629 0.99718,0.8858 0,0.38388 -0.11859,0.62564 -0.38505,0.78494 -0.36679,0.21928 -0.65331,0.16687 -0.94756,-0.17331 z m -8.24038,-3.83057 c -0.32424,-0.10584 -0.48882,-0.3537 -0.53253,-0.80204 -0.0347,-0.35575 -0.0161,-0.41302 0.22437,-0.69101 0.30801,-0.3561 0.62394,-0.39854 0.99895,-0.13418 0.41299,0.29112 0.45232,1.01512 0.0777,1.42965 -0.20668,0.22868 -0.46763,0.29577 -0.76847,0.19758 z m 6.86347,-0.0842 c -0.18264,-0.12299 -0.35309,-0.53663 -0.35309,-0.85684 0,-0.40916 0.41393,-0.85507 0.79371,-0.85507 0.35382,0 0.60167,0.18981 0.73708,0.56449 0.22383,0.61933 -0.14752,1.24259 -0.73739,1.23762 -0.17062,-0.001 -0.36876,-0.042 -0.44031,-0.0902 z m -10.43502,-1.3489 c -0.20965,-0.0866 -0.47123,-0.22569 -0.58129,-0.30906 -0.22927,-0.17368 -0.25162,-0.10689 0.39194,-1.17103 0.74263,-1.22796 2.92883,-3.41334 3.1767,-3.17552 0.0499,0.0479 0.16812,0.28892 0.26264,0.53558 0.25954,0.67729 0.25176,1.81585 -0.017,2.47837 -0.43824,1.08055 -1.25393,1.71302 -2.28057,1.76833 -0.41989,0.0226 -0.67231,-0.011 -0.95247,-0.12667 z m 13.25946,0.0649 c -0.80574,-0.23512 -1.5575,-0.9941 -1.8355,-1.85312 -0.27752,-0.85751 -0.15791,-2.19347 0.25196,-2.81432 0.0983,-0.14897 0.13377,-0.13421 0.6488,0.27039 1.09128,0.85729 2.05086,1.96245 2.79086,3.21428 0.39312,0.66503 0.38293,0.71382 -0.21072,1.00907 -0.42665,0.21219 -1.22477,0.29644 -1.6454,0.1737 z m -6.34565,-0.41513 c -0.42564,-0.30895 -0.48696,-1.00582 -0.1253,-1.42394 0.70844,-0.81903 1.82355,0.3801 1.15629,1.2434 -0.26801,0.34675 -0.69821,0.42208 -1.03099,0.18054 z m -0.25655,-2.70285 c -0.73749,-0.24174 -1.31056,-0.79068 -1.65827,-1.58843 -0.26215,-0.60145 -0.31052,-0.93722 -0.1436,-0.99682 0.19006,-0.0679 1.45436,-0.28955 2.03251,-0.35639 0.59379,-0.0686 2.23878,0.13447 2.9222,0.36084 0.29143,0.0965 -0.0345,1.06062 -0.59109,1.74859 -0.60514,0.74794 -1.71695,1.10913 -2.56175,0.83221 z"
       id="path848"
       inkscape:connector-curvature="0"
       sodipodi:nodetypes="cccccccccsccccscsscscsscsssccccccscssccssccccsccscccccccccccccccccccsccscscsccsccssccccccccccccccccsscccccscsccss" />
    <path
       style="fill:#2ec971;fill-opacity:0.98039216;stroke-width:0.16342902"
       d="m 12.238313,143.74158 c -1.3391,-0.21716 -2.86833,-1.02498 -3.44356,-1.81905 -0.95699,-1.32109 -0.96902,-1.45964 -0.96902,-11.15302 0,-7.41441 0.04,-8.98215 0.24676,-9.67849 0.32318,-1.08828 1.44499,-2.34083 2.50481,-2.79676 1.79915,-0.77397 4.80732,-0.85662 6.81848,-0.18736 1.28916,0.42902 2.22074,1.23168 2.79738,2.41031 0.41937,0.85716 0.46214,1.11951 0.5188,3.18265 l 0.0618,2.24849 -2.10226,-3.1e-4 -2.10227,-3.1e-4 -0.0146,-1.60525 c -0.0178,-1.95041 -0.27053,-2.50672 -1.32112,-2.90794 -1.53431,-0.58596 -3.02567,0.14524 -3.23557,1.58637 -0.0578,0.39663 -0.0824,4.1409 -0.0548,8.32059 l 0.0502,7.59946 0.37594,0.52705 c 0.82841,1.16142 3.14239,1.0747 3.86275,-0.14477 0.2278,-0.38563 0.29383,-0.89951 0.31301,-2.43626 l 0.0243,-1.94753 2.10084,-0.001 2.10085,-10e-4 -0.0656,2.57401 c -0.0568,2.23175 -0.11479,2.68499 -0.4358,3.4087 -0.45278,1.02077 -1.32641,1.89916 -2.32881,2.34148 -1.3472,0.59446 -3.75059,0.79695 -5.70239,0.48043 z m 95.962517,0.001 c -2.06396,-0.3433 -3.54248,-1.48265 -4.02275,-3.09989 -0.16941,-0.57045 -0.25609,-1.5161 -0.25609,-2.79381 v -1.93149 l 2.00201,1.7e-4 2.002,1.6e-4 0.0275,1.46376 c 0.0203,1.07407 0.10533,1.59541 0.31968,1.95827 0.78486,1.32866 3.09702,1.30856 3.90909,-0.034 0.26918,-0.44501 0.31883,-0.82544 0.31429,-2.40794 -0.008,-2.71837 0.004,-2.70362 -3.59005,-4.74364 -3.38344,-1.92069 -4.35838,-2.79899 -4.82083,-4.34286 -0.12548,-0.41892 -0.17226,-1.6737 -0.13648,-3.66082 l 0.0544,-3.02344 0.50403,-0.89885 c 0.86467,-1.54197 2.45912,-2.36159 4.98206,-2.56098 3.14708,-0.24873 5.63169,0.86534 6.53463,2.93006 0.29893,0.68354 0.3895,1.24466 0.44826,2.77693 l 0.0736,1.92028 h -2.06301 -2.06301 v -1.24187 c 0,-2.02165 -0.65916,-2.84385 -2.27996,-2.84385 -1.60707,0 -2.1919,0.81547 -2.17883,3.03813 0.0159,2.6986 0.0147,2.69712 3.7115,4.80646 4.59353,2.62103 5.1079,3.47836 4.95616,8.26101 -0.0925,2.91525 -0.34379,3.87438 -1.28183,4.89204 -0.35559,0.38576 -1.00651,0.85626 -1.44649,1.04553 -1.40544,0.6046 -3.78417,0.80937 -5.70002,0.49066 z m -81.903707,-0.34831 c 0.002,-0.11235 1.05653,-5.86709 2.34306,-12.78831 l 2.33915,-12.58404 2.6374,-0.0449 c 2.62617,-0.0447 2.63776,-0.0433 2.72291,0.32686 0.047,0.20446 1.04387,5.48299 2.21518,11.73007 1.17131,6.24707 2.22824,11.85473 2.34874,12.46146 l 0.21908,1.10314 h -2.10327 c -1.15681,0 -2.10845,-0.0184 -2.11476,-0.0408 -0.006,-0.0225 -0.21224,-1.29108 -0.4576,-2.81915 l -0.44611,-2.77828 h -2.43834 -2.43835 l -0.36232,2.28799 c -0.19928,1.25842 -0.40708,2.52702 -0.46177,2.81916 l -0.0994,0.53114 h -1.95374 c -1.45613,0 -1.95274,-0.052 -1.94982,-0.20428 z m 9.08296,-9.39716 c -0.0501,-0.24719 -0.42592,-2.61895 -0.83512,-5.27059 -0.83663,-5.42138 -0.89882,-5.77312 -1.00239,-5.66955 -0.0406,0.0406 -0.43653,2.38086 -0.87983,5.20056 -0.44328,2.8197 -0.84766,5.36574 -0.89859,5.65786 l -0.0926,0.53115 h 1.89983 1.89982 z m 11.66861,-3.22773 v -12.82925 h 2.10347 2.10347 l 2.65538,7.8446 c 1.46046,4.31452 2.72019,7.84459 2.7994,7.84459 0.0811,0 0.14402,-3.42868 0.14402,-7.84459 v -7.8446 h 1.87944 1.87942 v 12.82919 12.82917 l -2.002,-6.2e-4 -2.00201,-6.2e-4 -2.7624,-8.21161 c -1.51933,-4.51646 -2.82472,-8.28155 -2.90087,-8.36695 -0.0762,-0.0854 -0.13846,3.61015 -0.13846,8.21232 v 8.36756 h -1.87943 -1.87943 z m 24.27245,12.62489 c -0.0375,-0.11235 -0.18701,-0.86616 -0.33219,-1.67514 -0.40685,-2.26696 -4.31256,-22.99546 -4.4112,-23.41121 -0.0871,-0.36697 -0.0829,-0.36771 2.04046,-0.36771 1.17023,0 2.12769,0.0275 2.12769,0.0612 0,0.13706 2.79002,18.03287 2.87781,18.45889 0.0522,0.25361 0.12915,0.42698 0.17086,0.38527 0.0568,-0.0568 2.9982,-18.54854 2.9982,-18.84855 0,-0.0312 0.88252,-0.0568 1.96115,-0.0568 1.46053,0 1.96088,0.0521 1.96009,0.20428 -6.1e-4,0.11236 -0.6577,3.69759 -1.46028,7.96717 -0.80258,4.26958 -1.79698,9.56468 -2.20978,11.76689 -0.4128,2.20221 -0.82726,4.39011 -0.92102,4.86201 l -0.17048,0.858 h -2.28155 c -1.6799,0 -2.29953,-0.0539 -2.34976,-0.20429 z m 12.66251,0.0971 c 0,-0.0589 0.36469,-2.06299 0.81042,-4.45344 0.44573,-2.39044 1.47579,-7.94986 2.28902,-12.35427 0.81323,-4.40441 1.51632,-8.1735 1.56241,-8.37574 0.0826,-0.36241 0.12128,-0.36771 2.68455,-0.36771 2.3357,0 2.60937,0.0292 2.68541,0.286 0.0466,0.1573 0.97433,5.02952 2.0617,10.82717 1.08736,5.79764 2.14564,11.42369 2.35172,12.50232 l 0.3747,1.96115 -2.039,0.0459 c -1.12145,0.0253 -2.06964,0.0153 -2.10708,-0.0222 -0.0374,-0.0374 -0.26633,-1.32672 -0.50861,-2.86505 l -0.44054,-2.79697 h -2.3999 c -2.1452,0 -2.40867,0.0303 -2.48252,0.286 -0.0455,0.15729 -0.23526,1.27883 -0.42182,2.49228 -0.18656,1.21347 -0.37637,2.37177 -0.4218,2.57401 -0.08,0.35628 -0.1435,0.36771 -2.04063,0.36771 -1.07691,0 -1.95803,-0.0482 -1.95803,-0.10718 z m 9.15202,-9.1484 c 0,-0.17089 -1.6352,-10.56925 -1.72793,-10.98797 -0.0471,-0.21285 -0.12123,-0.35147 -0.16466,-0.30803 -0.0434,0.0434 -0.44527,2.42387 -0.89296,5.28987 -0.44769,2.86599 -0.85568,5.41314 -0.90664,5.66033 l -0.0926,0.44943 h 1.89242 c 1.04082,0 1.89241,-0.0466 1.89241,-0.10363 z"
       id="path848-3"
       inkscape:connector-curvature="0"
       sodipodi:nodetypes="ccscccccccccccccsccccccccccccscccccccccccsscccccsssccsccccscccsccscsccccccscccccccccccccccssscccccccccscccccccsscsssccsccscccccscsccccccscccsccscssccss" />
    <flowRoot
       xml:space="preserve"
       id="flowRoot2037"
       style="font-style:normal;font-weight:normal;font-size:40px;line-height:1.25;font-family:sans-serif;text-align:center;letter-spacing:0px;word-spacing:0px;text-anchor:middle;fill:#e53336;fill-opacity:0.98039216;stroke:none;"
       transform="matrix(0.26458333,0,0,0.26458333,151.94643,-190.95369)"><flowRegion
         id="flowRegion2039"
         style="text-align:center;text-anchor:middle;fill:#e53336;fill-opacity:0.98039216;"><rect
           id="rect2041"
           width="931.42859"
           height="244.28574"
           x="-807.14288"
           y="831.09113"
           style="text-align:center;text-anchor:middle;fill:#e53336;fill-opacity:0.98039216;" /></flowRegion><flowPara
         id="flowPara2043"
         style="font-style:normal;font-variant:normal;font-weight:normal;font-stretch:normal;font-size:96px;font-family:Karla;-inkscape-font-specification:Karla;text-align:center;text-anchor:middle;fill:#e53336;fill-opacity:0.98039216;line-height:0.75;">CYBER</flowPara><flowPara
         style="font-style:normal;font-variant:normal;font-weight:normal;font-stretch:normal;font-size:96px;font-family:Karla;-inkscape-font-specification:Karla;text-align:center;text-anchor:middle;fill:#e53336;fill-opacity:0.98039216;line-height:0.75;"
         id="flowPara2045">SECURITY</flowPara></flowRoot>    <path
       id="path1784-74-8-6-7-36"
       d="m 13.523633,184.96007 a 4.1412949,4.787794 0 0 1 -4.1412897,4.7878 4.1412949,4.787794 0 0 1 -4.14129,-4.7878 4.1412949,4.787794 0 0 1 4.14129,-4.78779 4.1412949,4.787794 0 0 1 4.1412897,4.78779 z"
       style="opacity:0.98000004;fill:#e34c3d;fill-opacity:1;fill-rule:nonzero;stroke:none;stroke-width:0.20825548;stroke-miterlimit:4;stroke-dasharray:none;stroke-opacity:1"
       inkscape:connector-curvature="0"
       inkscape:export-xdpi="96"
       inkscape:export-ydpi="96"
       inkscape:export-filename="/home/cwc/www/assignments/images/bash-basics.png" />
    <path
       id="path1784-74-0-9-9-5-7"
       d="m 82.868693,184.96007 a 4.1412949,4.787794 0 0 1 -4.14129,4.7878 4.1412949,4.787794 0 0 1 -4.14129,-4.7878 4.1412949,4.787794 0 0 1 4.14129,-4.78779 4.1412949,4.787794 0 0 1 4.14129,4.78779 z"
       style="opacity:0.98000004;fill:#bb633d;fill-opacity:1;fill-rule:nonzero;stroke:none;stroke-width:0.20825548;stroke-miterlimit:4;stroke-dasharray:none;stroke-opacity:1"
       inkscape:connector-curvature="0"
       inkscape:export-xdpi="96"
       inkscape:export-ydpi="96"
       inkscape:export-filename="/home/cwc/www/assignments/images/bash-basics.png" />
    <path
       id="path1784-74-1-6-3-9-5"
       d="m 72.962263,184.96007 a 4.1412949,4.787794 0 0 1 -4.14131,4.7878 4.1412949,4.787794 0 0 1 -4.14129,-4.7878 4.1412949,4.787794 0 0 1 4.14129,-4.78779 4.1412949,4.787794 0 0 1 4.14131,4.78779 z"
       style="opacity:0.98000004;fill:#9958b4;fill-opacity:1;fill-rule:nonzero;stroke:none;stroke-width:0.20825548;stroke-miterlimit:4;stroke-dasharray:none;stroke-opacity:1"
       inkscape:connector-curvature="0"
       inkscape:export-xdpi="96"
       inkscape:export-ydpi="96"
       inkscape:export-filename="/home/cwc/www/assignments/images/bash-basics.png" />
    <path
       id="path1784-74-11-7-0-2-3"
       d="m 63.055813,184.96007 a 4.1412949,4.787794 0 0 1 -4.14129,4.7878 4.1412949,4.787794 0 0 1 -4.14129,-4.7878 4.1412949,4.787794 0 0 1 4.14129,-4.78779 4.1412949,4.787794 0 0 1 4.14129,4.78779 z"
       style="opacity:0.98000004;fill:#3496d9;fill-opacity:1;fill-rule:nonzero;stroke:none;stroke-width:0.20825548;stroke-miterlimit:4;stroke-dasharray:none;stroke-opacity:1"
       inkscape:connector-curvature="0"
       inkscape:export-xdpi="96"
       inkscape:export-ydpi="96"
       inkscape:export-filename="/home/cwc/www/assignments/images/bash-basics.png" />
    <path
       id="path1784-74-21-8-9-2-5"
       d="m 53.149373,184.96007 a 4.1412949,4.787794 0 0 1 -4.1413,4.7878 4.1412949,4.787794 0 0 1 -4.14129,-4.7878 4.1412949,4.787794 0 0 1 4.14129,-4.78779 4.1412949,4.787794 0 0 1 4.1413,4.78779 z"
       style="opacity:0.98000004;fill:#1ab99b;fill-opacity:1;fill-rule:nonzero;stroke:none;stroke-width:0.20825548;stroke-miterlimit:4;stroke-dasharray:none;stroke-opacity:1"
       inkscape:connector-curvature="0"
       inkscape:export-xdpi="96"
       inkscape:export-ydpi="96"
       inkscape:export-filename="/home/cwc/www/assignments/images/bash-basics.png" />
    <path
       id="path1784-74-6-5-1-8-6"
       d="m 43.242953,184.96007 a 4.1412949,4.787794 0 0 1 -4.1413,4.7878 4.1412949,4.787794 0 0 1 -4.1413,-4.7878 4.1412949,4.787794 0 0 1 4.1413,-4.78779 4.1412949,4.787794 0 0 1 4.1413,4.78779 z"
       style="opacity:0.98000004;fill:#2ec971;fill-opacity:1;fill-rule:nonzero;stroke:none;stroke-width:0.20825548;stroke-miterlimit:4;stroke-dasharray:none;stroke-opacity:1"
       inkscape:connector-curvature="0"
       inkscape:export-xdpi="96"
       inkscape:export-ydpi="96"
       inkscape:export-filename="/home/cwc/www/assignments/images/bash-basics.png" />
    <path
       id="path1784-74-5-4-4-9-2"
       d="m 33.336503,184.96007 a 4.1412949,4.787794 0 0 1 -4.14129,4.7878 4.1412949,4.787794 0 0 1 -4.1413,-4.7878 4.1412949,4.787794 0 0 1 4.1413,-4.78779 4.1412949,4.787794 0 0 1 4.14129,4.78779 z"
       style="opacity:0.98000004;fill:#edc111;fill-opacity:1;fill-rule:nonzero;stroke:none;stroke-width:0.20825548;stroke-miterlimit:4;stroke-dasharray:none;stroke-opacity:1"
       inkscape:connector-curvature="0"
       inkscape:export-xdpi="96"
       inkscape:export-ydpi="96"
       inkscape:export-filename="/home/cwc/www/assignments/images/bash-basics.png" />
    <path
       id="path1784-74-06-2-7-7-9"
       d="m 23.430073,184.96007 a 4.1412949,4.787794 0 0 1 -4.1413,4.7878 4.1412949,4.787794 0 0 1 -4.14129,-4.7878 4.1412949,4.787794 0 0 1 4.14129,-4.78779 4.1412949,4.787794 0 0 1 4.1413,4.78779 z"
       style="opacity:0.98000004;fill:#e27d23;fill-opacity:1;fill-rule:nonzero;stroke:none;stroke-width:0.20825548;stroke-miterlimit:4;stroke-dasharray:none;stroke-opacity:1"
       inkscape:connector-curvature="0"
       inkscape:export-xdpi="96"
       inkscape:export-ydpi="96"
       inkscape:export-filename="/home/cwc/www/assignments/images/bash-basics.png" />
    <path
       id="path1784-74-8-6-3-1"
       d="m 96.372047,184.96007 a 4.1412949,4.787794 0 0 1 -4.141305,4.7878 4.1412949,4.787794 0 0 1 -4.14129,-4.7878 4.1412949,4.787794 0 0 1 4.14129,-4.78779 4.1412949,4.787794 0 0 1 4.141305,4.78779 z"
       style="opacity:0.98000004;fill:#2c3e50;fill-opacity:1;fill-rule:nonzero;stroke:#1eba9d;stroke-width:0.20825548;stroke-miterlimit:4;stroke-dasharray:none;stroke-opacity:1"
       inkscape:connector-curvature="0"
       inkscape:export-xdpi="96"
       inkscape:export-ydpi="96"
       inkscape:export-filename="/home/cwc/www/assignments/images/bash-basics.png" />
    <path
       id="path1784-74-0-9-9-6-2"
       d="m 165.71711,184.96007 a 4.1412949,4.787794 0 0 1 -4.14129,4.7878 4.1412949,4.787794 0 0 1 -4.14129,-4.7878 4.1412949,4.787794 0 0 1 4.14129,-4.78779 4.1412949,4.787794 0 0 1 4.14129,4.78779 z"
       style="opacity:0.98000004;fill:#ecf0f1;fill-opacity:1;fill-rule:nonzero;stroke:#1eba9d;stroke-width:0.20825548;stroke-miterlimit:4;stroke-dasharray:none;stroke-opacity:1"
       inkscape:connector-curvature="0"
       inkscape:export-xdpi="96"
       inkscape:export-ydpi="96"
       inkscape:export-filename="/home/cwc/www/assignments/images/bash-basics.png" />
    <path
       id="path1784-74-1-6-3-1-7"
       d="m 155.81067,184.96007 a 4.1412949,4.787794 0 0 1 -4.14129,4.7878 4.1412949,4.787794 0 0 1 -4.14129,-4.7878 4.1412949,4.787794 0 0 1 4.14129,-4.78779 4.1412949,4.787794 0 0 1 4.14129,4.78779 z"
       style="opacity:0.98000004;fill:#f5f5f5;fill-opacity:1;fill-rule:nonzero;stroke:#1eba9d;stroke-width:0.20825548;stroke-miterlimit:4;stroke-dasharray:none;stroke-opacity:1"
       inkscape:connector-curvature="0"
       inkscape:export-xdpi="96"
       inkscape:export-ydpi="96"
       inkscape:export-filename="/home/cwc/www/assignments/images/bash-basics.png" />
    <path
       id="path1784-74-11-7-0-29-0"
       d="m 145.90423,184.96007 a 4.1412949,4.787794 0 0 1 -4.1413,4.7878 4.1412949,4.787794 0 0 1 -4.14128,-4.7878 4.1412949,4.787794 0 0 1 4.14128,-4.78779 4.1412949,4.787794 0 0 1 4.1413,4.78779 z"
       style="opacity:0.98000004;fill:#e0e0e0;fill-opacity:1;fill-rule:nonzero;stroke:#1eba9d;stroke-width:0.20825548;stroke-miterlimit:4;stroke-dasharray:none;stroke-opacity:1"
       inkscape:connector-curvature="0"
       inkscape:export-xdpi="96"
       inkscape:export-ydpi="96"
       inkscape:export-filename="/home/cwc/www/assignments/images/bash-basics.png" />
    <path
       id="path1784-74-21-8-9-3-9"
       d="m 135.99779,184.96007 a 4.1412949,4.787794 0 0 1 -4.1413,4.7878 4.1412949,4.787794 0 0 1 -4.14129,-4.7878 4.1412949,4.787794 0 0 1 4.14129,-4.78779 4.1412949,4.787794 0 0 1 4.1413,4.78779 z"
       style="opacity:0.98000004;fill:#bdc3c7;fill-opacity:1;fill-rule:nonzero;stroke:#1eba9d;stroke-width:0.20825548;stroke-miterlimit:4;stroke-dasharray:none;stroke-opacity:1"
       inkscape:connector-curvature="0"
       inkscape:export-xdpi="96"
       inkscape:export-ydpi="96"
       inkscape:export-filename="/home/cwc/www/assignments/images/bash-basics.png" />
    <path
       id="path1784-74-6-5-1-1-3"
       d="m 126.09137,184.96007 a 4.1412949,4.787794 0 0 1 -4.14129,4.7878 4.1412949,4.787794 0 0 1 -4.14131,-4.7878 4.1412949,4.787794 0 0 1 4.14131,-4.78779 4.1412949,4.787794 0 0 1 4.14129,4.78779 z"
       style="opacity:0.98000004;fill:#95a5a6;fill-opacity:1;fill-rule:nonzero;stroke:#1eba9d;stroke-width:0.20825548;stroke-miterlimit:4;stroke-dasharray:none;stroke-opacity:1"
       inkscape:connector-curvature="0"
       inkscape:export-xdpi="96"
       inkscape:export-ydpi="96"
       inkscape:export-filename="/home/cwc/www/assignments/images/bash-basics.png" />
    <path
       id="path1784-74-5-4-4-94-6"
       d="m 116.18492,184.96007 a 4.1412949,4.787794 0 0 1 -4.1413,4.7878 4.1412949,4.787794 0 0 1 -4.14128,-4.7878 4.1412949,4.787794 0 0 1 4.14128,-4.78779 4.1412949,4.787794 0 0 1 4.1413,4.78779 z"
       style="opacity:0.98000004;fill:#7f8c8d;fill-opacity:1;fill-rule:nonzero;stroke:#1eba9d;stroke-width:0.20825548;stroke-miterlimit:4;stroke-dasharray:none;stroke-opacity:1"
       inkscape:connector-curvature="0"
       inkscape:export-xdpi="96"
       inkscape:export-ydpi="96"
       inkscape:export-filename="/home/cwc/www/assignments/images/bash-basics.png" />
    <path
       id="path1784-74-06-2-7-78-0"
       d="m 106.27848,184.96007 a 4.1412949,4.787794 0 0 1 -4.14129,4.7878 4.1412949,4.787794 0 0 1 -4.141288,-4.7878 4.1412949,4.787794 0 0 1 4.141288,-4.78779 4.1412949,4.787794 0 0 1 4.14129,4.78779 z"
       style="opacity:0.98000004;fill:#34495e;fill-opacity:1;fill-rule:nonzero;stroke:#1eba9d;stroke-width:0.20825548;stroke-miterlimit:4;stroke-dasharray:none;stroke-opacity:1"
       inkscape:connector-curvature="0"
       inkscape:export-xdpi="96"
       inkscape:export-ydpi="96"
       inkscape:export-filename="/home/cwc/www/assignments/images/bash-basics.png" />
    <path
       id="path1784-74-8-6-7-3"
       d="m 13.313863,167.89111 a 4.1412949,4.787794 0 0 1 -4.1412897,4.78779 4.1412949,4.787794 0 0 1 -4.14129,-4.78779 4.1412949,4.787794 0 0 1 4.14129,-4.78779 4.1412949,4.787794 0 0 1 4.1412897,4.78779 z"
       style="opacity:0.98000004;fill:#dc3781;fill-opacity:1;fill-rule:nonzero;stroke:none;stroke-width:0.20825548;stroke-miterlimit:4;stroke-dasharray:none;stroke-opacity:1"
       inkscape:connector-curvature="0"
       inkscape:export-xdpi="96"
       inkscape:export-ydpi="96"
       inkscape:export-filename="/home/cwc/www/assignments/images/bash-basics.png" />
    <path
       id="path1784-74-0-9-9-5-6"
       d="m 82.658923,167.89111 a 4.1412949,4.787794 0 0 1 -4.14129,4.78779 4.1412949,4.787794 0 0 1 -4.14129,-4.78779 4.1412949,4.787794 0 0 1 4.14129,-4.78779 4.1412949,4.787794 0 0 1 4.14129,4.78779 z"
       style="opacity:0.98000004;fill:#e63336;fill-opacity:1;fill-rule:nonzero;stroke:none;stroke-width:0.20825548;stroke-miterlimit:4;stroke-dasharray:none;stroke-opacity:1"
       inkscape:connector-curvature="0"
       inkscape:export-xdpi="96"
       inkscape:export-ydpi="96"
       inkscape:export-filename="/home/cwc/www/assignments/images/bash-basics.png" />
    <path
       id="path1784-74-1-6-3-9-7"
       d="m 72.752493,167.89111 a 4.1412949,4.787794 0 0 1 -4.1413,4.78779 4.1412949,4.787794 0 0 1 -4.1413,-4.78779 4.1412949,4.787794 0 0 1 4.1413,-4.78779 4.1412949,4.787794 0 0 1 4.1413,4.78779 z"
       style="opacity:0.98000004;fill:#d44c24;fill-opacity:1;fill-rule:nonzero;stroke:none;stroke-width:0.20825548;stroke-miterlimit:4;stroke-dasharray:none;stroke-opacity:1"
       inkscape:connector-curvature="0"
       inkscape:export-xdpi="96"
       inkscape:export-ydpi="96"
       inkscape:export-filename="/home/cwc/www/assignments/images/bash-basics.png" />
    <path
       id="path1784-74-11-7-0-2-5"
       d="m 62.846043,167.89111 a 4.1412949,4.787794 0 0 1 -4.14129,4.78779 4.1412949,4.787794 0 0 1 -4.14129,-4.78779 4.1412949,4.787794 0 0 1 4.14129,-4.78779 4.1412949,4.787794 0 0 1 4.14129,4.78779 z"
       style="opacity:0.98000004;fill:#ba8922;fill-opacity:1;fill-rule:nonzero;stroke:none;stroke-width:0.20825548;stroke-miterlimit:4;stroke-dasharray:none;stroke-opacity:1"
       inkscape:connector-curvature="0"
       inkscape:export-xdpi="96"
       inkscape:export-ydpi="96"
       inkscape:export-filename="/home/cwc/www/assignments/images/bash-basics.png" />
    <path
       id="path1784-74-21-8-9-2-3"
       d="m 52.939603,167.89111 a 4.1412949,4.787794 0 0 1 -4.1413,4.78779 4.1412949,4.787794 0 0 1 -4.14129,-4.78779 4.1412949,4.787794 0 0 1 4.14129,-4.78779 4.1412949,4.787794 0 0 1 4.1413,4.78779 z"
       style="opacity:0.98000004;fill:#849922;fill-opacity:1;fill-rule:nonzero;stroke:none;stroke-width:0.20825548;stroke-miterlimit:4;stroke-dasharray:none;stroke-opacity:1"
       inkscape:connector-curvature="0"
       inkscape:export-xdpi="96"
       inkscape:export-ydpi="96"
       inkscape:export-filename="/home/cwc/www/assignments/images/bash-basics.png" />
    <path
       id="path1784-74-6-5-1-8-5"
       d="m 43.033193,167.89111 a 4.1412949,4.787794 0 0 1 -4.14131,4.78779 4.1412949,4.787794 0 0 1 -4.1413,-4.78779 4.1412949,4.787794 0 0 1 4.1413,-4.78779 4.1412949,4.787794 0 0 1 4.14131,4.78779 z"
       style="opacity:0.98000004;fill:#00a198;fill-opacity:1;fill-rule:nonzero;stroke:none;stroke-width:0.20825548;stroke-miterlimit:4;stroke-dasharray:none;stroke-opacity:1"
       inkscape:connector-curvature="0"
       inkscape:export-xdpi="96"
       inkscape:export-ydpi="96"
       inkscape:export-filename="/home/cwc/www/assignments/images/bash-basics.png" />
    <path
       id="path1784-74-5-4-4-9-6"
       d="m 33.126733,167.89111 a 4.1412949,4.787794 0 0 1 -4.14129,4.78779 4.1412949,4.787794 0 0 1 -4.1413,-4.78779 4.1412949,4.787794 0 0 1 4.1413,-4.78779 4.1412949,4.787794 0 0 1 4.14129,4.78779 z"
       style="opacity:0.98000004;fill:#008bcf;fill-opacity:1;fill-rule:nonzero;stroke:none;stroke-width:0.20825548;stroke-miterlimit:4;stroke-dasharray:none;stroke-opacity:1"
       inkscape:connector-curvature="0"
       inkscape:export-xdpi="96"
       inkscape:export-ydpi="96"
       inkscape:export-filename="/home/cwc/www/assignments/images/bash-basics.png" />
    <path
       id="path1784-74-06-2-7-7-2"
       d="m 23.220293,167.89111 a 4.1412949,4.787794 0 0 1 -4.14129,4.78779 4.1412949,4.787794 0 0 1 -4.14129,-4.78779 4.1412949,4.787794 0 0 1 4.14129,-4.78779 4.1412949,4.787794 0 0 1 4.14129,4.78779 z"
       style="opacity:0.98000004;fill:#6a71c1;fill-opacity:1;fill-rule:nonzero;stroke:none;stroke-width:0.20825548;stroke-miterlimit:4;stroke-dasharray:none;stroke-opacity:1"
       inkscape:connector-curvature="0"
       inkscape:export-xdpi="96"
       inkscape:export-ydpi="96"
       inkscape:export-filename="/home/cwc/www/assignments/images/bash-basics.png" />
    <path
       id="path1784-74-8-6-3-9"
       d="m 96.162278,167.89111 a 4.1412949,4.787794 0 0 1 -4.141305,4.78779 4.1412949,4.787794 0 0 1 -4.141291,-4.78779 4.1412949,4.787794 0 0 1 4.141291,-4.78779 4.1412949,4.787794 0 0 1 4.141305,4.78779 z"
       style="opacity:0.98000004;fill:#002b35;fill-opacity:1;fill-rule:nonzero;stroke:#1eba9d;stroke-width:0.20825548;stroke-miterlimit:4;stroke-dasharray:none;stroke-opacity:1"
       inkscape:connector-curvature="0"
       inkscape:export-xdpi="96"
       inkscape:export-ydpi="96"
       inkscape:export-filename="/home/cwc/www/assignments/images/bash-basics.png" />
    <path
       id="path1784-74-0-9-9-6-1"
       d="m 165.50733,167.89111 a 4.1412949,4.787794 0 0 1 -4.14128,4.78779 4.1412949,4.787794 0 0 1 -4.14129,-4.78779 4.1412949,4.787794 0 0 1 4.14129,-4.78779 4.1412949,4.787794 0 0 1 4.14128,4.78779 z"
       style="opacity:0.98000004;fill:#fef6e4;fill-opacity:1;fill-rule:nonzero;stroke:#1eba9d;stroke-width:0.20825548;stroke-miterlimit:4;stroke-dasharray:none;stroke-opacity:1"
       inkscape:connector-curvature="0"
       inkscape:export-xdpi="96"
       inkscape:export-ydpi="96"
       inkscape:export-filename="/home/cwc/www/assignments/images/bash-basics.png" />
    <path
       id="path1784-74-1-6-3-1-2"
       d="m 155.60092,167.89111 a 4.1412949,4.787794 0 0 1 -4.14131,4.78779 4.1412949,4.787794 0 0 1 -4.14129,-4.78779 4.1412949,4.787794 0 0 1 4.14129,-4.78779 4.1412949,4.787794 0 0 1 4.14131,4.78779 z"
       style="opacity:0.98000004;fill:#efe8d6;fill-opacity:1;fill-rule:nonzero;stroke:#1eba9d;stroke-width:0.20825548;stroke-miterlimit:4;stroke-dasharray:none;stroke-opacity:1"
       inkscape:connector-curvature="0"
       inkscape:export-xdpi="96"
       inkscape:export-ydpi="96"
       inkscape:export-filename="/home/cwc/www/assignments/images/bash-basics.png" />
    <path
       id="path1784-74-11-7-0-29-7"
       d="m 145.69446,167.89111 a 4.1412949,4.787794 0 0 1 -4.14129,4.78779 4.1412949,4.787794 0 0 1 -4.1413,-4.78779 4.1412949,4.787794 0 0 1 4.1413,-4.78779 4.1412949,4.787794 0 0 1 4.14129,4.78779 z"
       style="opacity:0.98000004;fill:#91a1a1;fill-opacity:1;fill-rule:nonzero;stroke:#1eba9d;stroke-width:0.20825548;stroke-miterlimit:4;stroke-dasharray:none;stroke-opacity:1"
       inkscape:connector-curvature="0"
       inkscape:export-xdpi="96"
       inkscape:export-ydpi="96"
       inkscape:export-filename="/home/cwc/www/assignments/images/bash-basics.png" />
    <path
       id="path1784-74-21-8-9-3-0"
       d="m 135.78801,167.89111 a 4.1412949,4.787794 0 0 1 -4.14128,4.78779 4.1412949,4.787794 0 0 1 -4.1413,-4.78779 4.1412949,4.787794 0 0 1 4.1413,-4.78779 4.1412949,4.787794 0 0 1 4.14128,4.78779 z"
       style="opacity:0.98000004;fill:#819496;fill-opacity:1;fill-rule:nonzero;stroke:#1eba9d;stroke-width:0.20825548;stroke-miterlimit:4;stroke-dasharray:none;stroke-opacity:1"
       inkscape:connector-curvature="0"
       inkscape:export-xdpi="96"
       inkscape:export-ydpi="96"
       inkscape:export-filename="/home/cwc/www/assignments/images/bash-basics.png" />
    <path
       id="path1784-74-6-5-1-1-9"
       d="m 125.88162,167.89111 a 4.1412949,4.787794 0 0 1 -4.14131,4.78779 4.1412949,4.787794 0 0 1 -4.14131,-4.78779 4.1412949,4.787794 0 0 1 4.14131,-4.78779 4.1412949,4.787794 0 0 1 4.14131,4.78779 z"
       style="opacity:0.98000004;fill:#627b82;fill-opacity:1;fill-rule:nonzero;stroke:#1eba9d;stroke-width:0.20825548;stroke-miterlimit:4;stroke-dasharray:none;stroke-opacity:1"
       inkscape:connector-curvature="0"
       inkscape:export-xdpi="96"
       inkscape:export-ydpi="96"
       inkscape:export-filename="/home/cwc/www/assignments/images/bash-basics.png" />
    <path
       id="path1784-74-5-4-4-94-3"
       d="m 115.97514,167.89111 a 4.1412949,4.787794 0 0 1 -4.14127,4.78779 4.1412949,4.787794 0 0 1 -4.14131,-4.78779 4.1412949,4.787794 0 0 1 4.14131,-4.78779 4.1412949,4.787794 0 0 1 4.14127,4.78779 z"
       style="opacity:0.98000004;fill:#556e74;fill-opacity:1;fill-rule:nonzero;stroke:#1eba9d;stroke-width:0.20825548;stroke-miterlimit:4;stroke-dasharray:none;stroke-opacity:1"
       inkscape:connector-curvature="0"
       inkscape:export-xdpi="96"
       inkscape:export-ydpi="96"
       inkscape:export-filename="/home/cwc/www/assignments/images/bash-basics.png" />
    <path
       id="path1784-74-06-2-7-78-6"
       d="m 106.06871,167.89111 a 4.1412949,4.787794 0 0 1 -4.14129,4.78779 4.1412949,4.787794 0 0 1 -4.141287,-4.78779 4.1412949,4.787794 0 0 1 4.141287,-4.78779 4.1412949,4.787794 0 0 1 4.14129,4.78779 z"
       style="opacity:0.98000004;fill:#003641;fill-opacity:1;fill-rule:nonzero;stroke:#1eba9d;stroke-width:0.20825548;stroke-miterlimit:4;stroke-dasharray:none;stroke-opacity:1"
       inkscape:connector-curvature="0"
       inkscape:export-xdpi="96"
       inkscape:export-ydpi="96"
       inkscape:export-filename="/home/cwc/www/assignments/images/bash-basics.png" />
    <path
       style="fill:#556e74;stroke-width:0.07920406;fill-opacity:0.98039216"
       d="m 65.734009,116.85928 c 1.04031,-0.13838 3.20067,-0.55398 3.52918,-0.67892 0.24739,-0.0941 0.25645,-0.44449 0.0324,-1.25334 -0.47283,-1.7069 -1.57622,-3.22 -3.04548,-4.17624 -1.1945,-0.77745 -2.2984,-1.13216 -3.72326,-1.1964 -2.05312,-0.0926 -3.83367,0.5786 -5.35362,2.01797 -1.04063,0.98547 -1.74481,2.17451 -2.08028,3.5127 -0.18796,0.74972 -0.17229,1.00543 0.0673,1.09653 0.56944,0.21657 3.41254,0.68944 4.9514,0.82351 0.89357,0.0778 4.67902,-0.0203 5.62244,-0.14581 z m 9.27158,-3.23153 c 2.33803,-1.4598 4.785684,-3.60633 6.662202,-5.84257 1.031266,-1.22896 2.675728,-3.62832 2.675728,-3.90404 0,-0.23217 -1.165889,-0.92271 -2.113338,-1.25168 -1.51675,-0.52665 -3.355223,-0.52964 -4.857112,-0.008 -1.93885,0.67352 -3.56281,2.20607 -4.35512,4.10998 -0.7939,1.90776 -0.71552,4.22609 0.20573,6.08404 0.30811,0.62138 0.78445,1.30711 0.908,1.30711 0.0447,0 0.43795,-0.22272 0.87391,-0.49493 z m -24.31056,0.079 c 0.94545,-1.2962 1.44266,-3.25686 1.25435,-4.94633 -0.401,-3.59735 -3.18446,-6.26989 -6.83912,-6.56653 -0.86275,-0.07 -1.88746,0.0731 -2.83711,0.39613 -0.7602,0.25864 -2.01939,0.94085 -2.09556,1.13535 -0.0787,0.20104 0.0731,0.50418 0.79084,1.57984 1.83385,2.74801 4.0237,5.05497 6.70328,7.06181 1.17948,0.88336 2.42549,1.6764 2.63392,1.6764 0.0791,0 0.25433,-0.1515 0.3894,-0.33667 z m 12.52006,-6.02163 c 1.84898,-0.85814 1.86648,-3.47712 0.029,-4.34671 -1.2289,-0.58159 -2.66993,-0.0505 -3.24181,1.19475 -0.24281,0.52874 -0.23305,1.49738 0.02,1.98449 0.64343,1.23852 1.98372,1.72862 3.19277,1.16747 z m -9.49651,-4.01051 c 0.47164,-0.22841 0.88374,-0.63998 1.1441,-1.14265 0.17906,-0.34567 0.21287,-0.51161 0.21287,-1.04469 0,-0.53309 -0.0338,-0.69903 -0.21287,-1.04469 -0.26197,-0.505787 -0.66455,-0.906127 -1.1518,-1.145424 -0.56559,-0.27775 -1.48209,-0.26257 -2.08698,0.0346 -0.78089,0.383607 -1.25097,1.084464 -1.31292,1.957484 -0.082,1.15598 0.5183,2.08881 1.5912,2.47242 0.53243,0.19037 1.32166,0.15255 1.8164,-0.087 z m 19.06328,0.0339 c 0.54459,-0.28218 0.86354,-0.60204 1.12001,-1.12321 0.81085,-1.64768 -0.34449,-3.475884 -2.19038,-3.466024 -0.33745,0.002 -0.60312,0.0608 -0.91067,0.2022 -0.61347,0.282067 -0.90368,0.555157 -1.18194,1.112204 -0.465,0.93091 -0.28117,2.05576 0.45444,2.78058 0.53463,0.52678 0.99854,0.69827 1.79786,0.66457 0.41198,-0.0174 0.73044,-0.0769 0.91068,-0.17032 z m -33.50641,-4.640114 c 2.25304,-0.624577 4.06402,-2.193128 4.92739,-4.267774 0.78144,-1.877814 0.71061,-4.286112 -0.17799,-6.051384 -0.93637,-1.860159 -2.5048,-3.195546 -4.46296,-3.79982 -0.82715,-0.255263 -1.18471,-0.306451 -1.33364,-0.190947 -0.24506,0.190082 -0.7581,3.046413 -0.91949,5.119351 -0.22177,2.84853 0.0958,6.613389 0.7539,8.935867 0.11106,0.391947 0.13262,0.415887 0.37459,0.415887 0.14121,0 0.5184,-0.0725 0.8382,-0.16118 z m 47.126216,-0.0348 c 0.127022,-0.334217 0.536465,-2.483285 0.68711,-3.606483 0.177919,-1.326521 0.203665,-5.267198 0.04295,-6.575152 -0.248039,-2.018741 -0.671521,-4.00365 -0.877742,-4.114057 -0.08554,-0.0458 -0.321995,-0.03249 -0.646519,0.03644 -2.717517,0.577086 -4.763002,2.489465 -5.590056,5.226273 -0.194773,0.644541 -0.215385,0.830822 -0.214715,1.940862 6.12e-4,1.012418 0.03097,1.339097 0.173066,1.861634 0.212631,0.782013 0.698402,1.812589 1.154877,2.450111 0.397455,0.555087 1.2621,1.405331 1.806516,1.776428 0.861562,0.587277 2.42325,1.183664 3.130687,1.195564 0.205101,0.003 0.274903,-0.0366 0.333814,-0.19164 z M 49.774609,94.16896 c 0.85744,-0.379426 1.32975,-1.106227 1.37502,-2.11589 0.0375,-0.837084 -0.15066,-1.302922 -0.74641,-1.847599 -0.48867,-0.446779 -0.97746,-0.640561 -1.61575,-0.640561 -0.6383,0 -1.12709,0.193782 -1.61576,0.640561 -0.59482,0.543829 -0.78356,1.01022 -0.7477,1.847599 0.0388,0.905765 0.38658,1.532875 1.09251,1.969917 0.6335,0.392196 1.56551,0.452445 2.25809,0.145973 z m 26.94927,-0.0094 c 0.48125,-0.207101 0.990448,-0.72679 1.228243,-1.253541 0.24313,-0.538576 0.231386,-1.420462 -0.02601,-1.954774 -0.440166,-0.913623 -1.322833,-1.430776 -2.333003,-1.3669 -0.96596,0.06109 -1.65586,0.540587 -2.06433,1.434795 -0.18656,0.408419 -0.20761,0.536485 -0.17578,1.069448 0.0417,0.69802 0.2261,1.125709 0.68203,1.581812 0.70603,0.706293 1.74508,0.895322 2.68887,0.48916 z m -23.03909,-9.509669 c 0.47054,-0.207716 0.91926,-0.641078 1.18578,-1.145199 0.17535,-0.331703 0.20964,-0.499122 0.21092,-1.029846 8.2e-4,-0.535104 -0.0329,-0.703809 -0.21941,-1.083837 -0.40154,-0.81796 -1.08556,-1.258054 -2.04444,-1.315371 -0.53215,-0.03182 -0.65924,-0.01053 -1.08978,0.182803 -1.48614,0.66718 -1.89914,2.568081 -0.81906,3.769835 0.74137,0.824876 1.78575,1.058745 2.77599,0.621615 z m 19.15436,-0.06209 c 0.80878,-0.418745 1.21965,-1.082086 1.27303,-2.055262 0.0336,-0.612068 0.0194,-0.688796 -0.2142,-1.163584 -0.28117,-0.57134 -0.57646,-0.856945 -1.15571,-1.117818 -0.58255,-0.262349 -0.98087,-0.303434 -1.54361,-0.159215 -0.92601,0.237326 -1.55148,0.86303 -1.78872,1.789379 -0.14417,0.562951 -0.1031,0.961412 0.15916,1.544177 0.25754,0.572293 0.54028,0.868663 1.09762,1.150514 0.45968,0.232472 0.53568,0.246621 1.16486,0.216836 0.49048,-0.02324 0.76387,-0.07885 1.00757,-0.205027 z m -26.32014,-3.053624 c 3.10046,-0.876498 5.20142,-3.41592 5.48087,-6.624703 0.0703,-0.807232 -0.0808,-1.940447 -0.3782,-2.837898 -0.32862,-0.991401 -1.06898,-2.232096 -1.33195,-2.232096 -0.0906,0 -2.21064,1.415469 -2.83685,1.893979 -1.77144,1.353642 -3.5847,3.124265 -4.98571,4.86844 -0.95141,1.18447 -2.31136,3.212799 -2.31136,3.447354 0,0.353928 1.45139,1.147225 2.70356,1.477718 0.66844,0.17643 0.86166,0.192813 1.96862,0.166945 0.82359,-0.01922 1.37996,-0.0718 1.69102,-0.159739 z m 35.092478,-0.02864 c 1.096799,-0.305458 2.449018,-0.999147 2.677153,-1.37338 0.05732,-0.09401 -0.04807,-0.323619 -0.429519,-0.935907 -1.747026,-2.804146 -4.227356,-5.49147 -7.011912,-7.597089 -0.8374,-0.633219 -2.55967,-1.759679 -2.69041,-1.759679 -0.30073,0 -1.07544,1.356719 -1.42491,2.495389 -0.20243,0.659586 -0.21882,0.813803 -0.21882,2.059686 0,1.239397 0.0171,1.402251 0.21431,2.043571 0.81228,2.641247 2.87105,4.557169 5.518558,5.135637 0.886823,0.193771 2.545547,0.160147 3.36555,-0.06823 z M 63.350169,80.64959 c 1.7503,-0.952986 1.66591,-3.459028 -0.14496,-4.304409 -0.87432,-0.40817 -1.9448,-0.226208 -2.64516,0.449616 -1.30692,1.261135 -0.84576,3.384827 0.87418,4.025762 0.50039,0.186475 1.40824,0.105459 1.91594,-0.170969 z m 0.28703,-6.285826 c 2.74971,-0.567741 4.91897,-2.580228 5.65837,-5.249443 0.0881,-0.318336 0.16033,-0.714074 0.16033,-0.879418 0,-0.372094 -0.0198,-0.380786 -1.57635,-0.690797 -2.21155,-0.440473 -2.99676,-0.511287 -5.66948,-0.511287 -2.6859,0 -3.48537,0.07279 -5.68709,0.517745 -1.52895,0.308992 -1.55874,0.321184 -1.55874,0.638077 0,0.687732 0.49385,2.037212 1.07367,2.933844 1.64348,2.541499 4.69167,3.841619 7.59929,3.241279 z"
       id="path2746"
       inkscape:connector-curvature="0"
       sodipodi:nodetypes="cccccscsccccssccccscccscccsscccccccccscccccccccccccccccsccccsccccccccccccccsccscccsccccccsccscccccsscccccssccccccscssccccccsssscccccsccccscscscc" />
  </g>
</svg>
